<?xml version="1.0" encoding="UTF-8"?>
<!-- Generated by Pixelmator Pro 3.7.1 -->
<svg width="1024" height="1024" viewBox="0 0 1024 1024" xmlns="http://www.w3.org/2000/svg">
    <clipPath id="clipPath1">
        <path clip-rule="evenodd" d="M 1024 512 C 1024 229.230225 794.769775 0 512 0 C 229.230209 0 0 229.230225 0 512 C 0 794.769791 229.230209 1024 512 1024 C 794.769775 1024 1024 794.769791 1024 512 Z"/>
    </clipPath>
    <g id="Group" clip-path="url(#clipPath1)">
        <path id="Shape" fill="#ffffff" fill-rule="evenodd" stroke="none" d="M 0 1024 L 1024 1024 L 1024 0 L 0 0 Z"/>
        <g id="g1">
            <path id="Path" fill="#fe2517" stroke="none" d="M 260.035522 524.16333 C 256.349915 525.022339 250.380371 525.536316 250.548279 520.026855 C 250.762558 513.000732 254.872147 501.69989 257.557739 495.156189 C 321.88028 338.447266 465.741943 192.741394 641.276917 177.52948 C 672.252625 174.844849 731.348694 178.543457 756.240845 199.038391 C 739.626282 208.897644 723.397705 216.015686 706.695007 227.651367 C 673.450256 250.810547 616.177917 303.830444 602.633118 341.674622 C 603.890991 346.826843 604.709229 350.387268 606.647095 355.349365 C 608.378174 359.780823 613.689026 368.765259 614.477539 372.711487 C 612.564697 375.689331 593.531738 378.82489 587.287598 382.372314 C 580.023987 386.500366 579.78186 386.697083 573.34845 392.243591 C 575.112915 406.902588 576.797546 419.47522 579.494263 434.032227 C 567.21759 436.83374 555.861084 444.472107 545.578796 451.530762 C 540.596313 470.895813 539.772522 482.859924 544.237366 502.63501 C 544.222534 500.797241 543.836609 494.670044 544.624207 494.366638 C 554.889832 490.413879 569.909668 489.865662 580.775391 485.779297 C 612.900513 473.700134 629.06134 459.855652 648.593384 433.297485 C 642.983765 432.342896 631.054993 430.813171 630.499268 424.057922 C 631.157898 422.507751 632.374084 420.644104 633.788757 419.745178 C 646.061829 411.939758 656.780029 404.638123 667.953857 395.130432 C 692.424744 374.301514 712.660889 348.958618 727.56012 320.481995 C 737.993591 300.060364 745.414917 278.355713 749.171997 255.782837 C 749.598694 253.259583 750.878906 244.846619 752.660034 243.247314 C 756.370605 243.662903 761.621216 250.442261 763.949707 253.495239 C 816.056763 321.860535 815.82489 425.712891 784.608826 502.374329 C 765.805054 548.52478 732.600098 595.395203 685.948669 614.544067 C 683.205566 615.670288 673.756348 614.494934 670.435364 614.198975 C 665.64209 614.56543 637.095886 606.879639 635.395508 607.858398 C 640.902161 610.048584 656.305115 614.63501 659.326477 617.751953 C 659.889587 622.350342 656.687317 625.240112 653.229919 627.957214 C 593.545654 674.85083 519.015991 704.915527 443.991821 715.225586 C 435.604828 716.377808 427.684387 715.983521 419.364166 715.156982 C 440.228271 724.286133 435.898865 725.9151 446.787872 744.680908 C 459.742706 767.005188 477.577118 788.10498 496.582245 805.495972 C 504.473846 812.677063 513.807129 818.428528 522.354675 824.727417 L 522.75354 825.865662 C 519.894531 831.131104 499.636108 837.176697 493.580292 838.956909 C 431.576874 857.178101 355.323608 841.96344 306.442963 799.218384 C 301.053223 794.504944 297.873199 790.871277 300.532837 783.398926 C 301.306488 780.487915 303.183167 776.545288 304.442017 773.671448 C 301.665527 776.742004 293.064178 789.74884 288.892426 787.536316 C 279.02951 782.307068 263.585693 765.209229 257.97702 755.987305 C 235.745499 728.405029 221.911209 683.550415 218.707962 648.670166 C 215.984329 619.858643 219.348053 590.795837 228.579269 563.367493 C 234.841949 544.213013 241.536926 530.822144 263.809265 528.874084 C 264.19519 527.486206 264.724884 526.191223 265.145111 524.718079 C 263.631165 523.60675 262.302734 524.086365 260.035522 524.16333 Z"/>
            <path id="path1" fill="#2c0000" stroke="none" d="M 290.438843 512.532227 C 315.650055 521.701355 338.782379 541.597961 355.587067 562.094727 L 355.635315 561.358154 L 356.431213 560.773682 C 358.996216 560.779297 359.659546 561.411926 361.918396 562.45929 C 414.761993 586.945984 484.535522 571.053223 530.222229 540.727783 C 533.965332 543.930054 542.360718 551.829224 547.433228 551.6297 C 549.599304 554.18457 552.990906 559.744934 555.054016 560.926819 C 559.458557 566.045654 574.904175 582.713013 580.561096 585.613892 C 580.192871 582.375366 576.89679 582.476501 577.201111 580.864258 C 579.834717 581.9505 585.70874 586.791077 588.708801 588.74939 C 597.98175 594.803345 624.638245 609.885376 635.395508 607.858398 C 640.902161 610.048584 656.305115 614.63501 659.326477 617.751953 C 659.889587 622.350342 656.687317 625.240112 653.229919 627.957214 C 593.545654 674.85083 519.015991 704.915527 443.991821 715.225586 C 435.604828 716.377808 427.684387 715.983521 419.364166 715.156982 C 440.228271 724.286133 435.898865 725.9151 446.787872 744.680908 C 459.742706 767.005188 477.577118 788.10498 496.582245 805.495972 C 504.473846 812.677063 513.807129 818.428528 522.354675 824.727417 L 522.75354 825.865662 C 519.894531 831.131104 499.636108 837.176697 493.580292 838.956909 C 431.576874 857.178101 355.323608 841.96344 306.442963 799.218384 C 301.053223 794.504944 297.873199 790.871277 300.532837 783.398926 C 301.306488 780.487915 303.183167 776.545288 304.442017 773.671448 C 301.665527 776.742004 293.064178 789.74884 288.892426 787.536316 C 279.02951 782.307068 263.585693 765.209229 257.97702 755.987305 C 235.745499 728.405029 221.911209 683.550415 218.707962 648.670166 C 215.984329 619.858643 219.348053 590.795837 228.579269 563.367493 C 234.841949 544.213013 241.536926 530.822144 263.809265 528.874084 C 264.19519 527.486206 264.724884 526.191223 265.145111 524.718079 C 263.631165 523.60675 262.302734 524.086365 260.035522 524.16333 C 257.339722 523.652222 253.779343 524.294189 253.0168 521.179077 C 255.078064 518.90625 260.166321 516.704895 263.402954 514.579651 C 269.392883 511.534119 283.035187 513.51001 289.421204 515.56665 C 290.614197 515.942383 291.793274 516.362671 292.955627 516.8255 C 291.790497 515.321777 291.309052 514.233582 290.438843 512.532227 Z"/>
            <linearGradient id="linearGradient1" x1="498.142123" y1="541.601121" x2="497.535772" y2="699.96179" gradientUnits="userSpaceOnUse">
                <stop offset="1e-05" stop-color="#b40000" stop-opacity="1"/>
                <stop offset="1" stop-color="#e8170f" stop-opacity="1"/>
            </linearGradient>
            <path id="path2" fill="url(#linearGradient1)" stroke="none" d="M 530.222229 540.727783 C 533.965332 543.930054 542.360718 551.829224 547.433228 551.6297 C 549.599304 554.18457 552.990906 559.744934 555.054016 560.926819 C 559.458557 566.045654 574.904175 582.713013 580.561096 585.613892 C 598.794434 601.094788 622.755127 611.508789 645.303894 618.802124 C 643.944885 619.582275 642.117371 620.810486 640.638672 621.051636 C 640.364075 621.075806 630.767395 625.302246 630.364746 625.652832 C 621.968445 632.978638 613.039612 639.722839 603.336304 645.257324 C 560.12738 670.172546 512.943481 687.44104 463.862488 696.303101 C 452.696136 698.304932 439.05484 700.611206 427.740967 700.391296 C 415.641418 661.351379 400.545502 625.56665 378.4021 591.062073 C 375.756409 586.94043 369.296143 576.904907 365.569672 573.988281 C 364.97879 573.668335 364.298767 572.807495 363.801544 572.268433 C 361.205963 568.873169 358.297699 565.422302 355.587067 562.094727 L 355.635315 561.358154 L 356.431213 560.773682 C 358.996216 560.779297 359.659546 561.411926 361.918396 562.45929 C 414.761993 586.945984 484.535522 571.053223 530.222229 540.727783 Z"/>
            <linearGradient id="linearGradient2" x1="347.559671" y1="708.811592" x2="216.074698" y2="605.975225" gradientUnits="userSpaceOnUse">
                <stop offset="1e-05" stop-color="#e20100" stop-opacity="1"/>
                <stop offset="1" stop-color="#ff3624" stop-opacity="1"/>
            </linearGradient>
            <path id="path3" fill="url(#linearGradient2)" stroke="none" d="M 245.431274 548.61853 C 245.691925 548.55542 245.951675 548.491455 246.212357 548.427429 C 251.04364 546.359619 256.676422 542.725037 261.85376 541.739868 C 272.762177 539.662842 283.652069 543.917114 293.021484 549.083252 C 311.19635 559.103027 325.196686 574.730469 337.816681 590.890442 C 339.4039 592.921997 346.354004 602.108765 346.907806 604.238647 C 351.682526 609.780518 368.782196 636.035339 370.904724 642.245117 C 370.237671 644.828674 369.864777 647.311157 368.290497 649.390015 L 366.607758 650.298218 C 368.884216 655.06366 373.060608 660.818848 374.675629 665.054565 C 378.840912 673.016724 384.96814 686.223938 387.521088 694.839233 C 384.504303 697.222412 369.565155 700.419067 365.052948 702.256836 C 335.917755 714.124512 299.029053 732.46167 285.999084 762.867798 L 283.806061 760.0802 C 281.922882 757.759155 279.863495 755.521606 278.699249 752.790527 C 277.651001 751.540039 276.272491 749.284912 275.328125 747.851685 C 271.569214 745.340454 266.607117 734.890259 264.51059 730.492249 C 250.593735 701.298523 241.358795 667.123291 240.885681 634.701355 L 241.023926 621.661133 C 241.720612 611.794495 243.039749 601.981628 244.974854 592.281982 C 246.806076 582.919922 252.039032 565.602234 251.148483 557.19104 C 249.288498 555.677124 247.901642 551.421875 245.431274 548.61853 Z"/>
            <path id="path4" fill="#b90000" stroke="none" d="M 353.625977 641.134766 C 361.710602 648.113525 369.876831 661.920044 374.675629 665.054565 C 378.840912 673.016724 384.96814 686.223938 387.521088 694.839233 C 384.504303 697.222412 369.565155 700.419067 365.052948 702.256836 C 335.917755 714.124512 299.029053 732.46167 285.999084 762.867798 L 283.806061 760.0802 C 285.792206 732.072021 319.203949 712.44635 341.190613 700.331055 C 344.834473 698.052673 366.066925 689.383545 366.501984 686.298218 C 368.110565 674.887878 356.404327 652.250977 353.625977 641.134766 Z"/>
            <path id="path5" fill="#fea39e" stroke="none" d="M 245.431274 548.61853 C 245.691925 548.55542 245.951675 548.491455 246.212357 548.427429 C 251.04364 546.359619 256.676422 542.725037 261.85376 541.739868 C 272.762177 539.662842 283.652069 543.917114 293.021484 549.083252 C 311.19635 559.103027 325.196686 574.730469 337.816681 590.890442 C 339.4039 592.921997 346.354004 602.108765 346.907806 604.238647 C 340.992065 601.020508 337.17749 600.71814 332.141235 594.56958 C 331.104065 593.303345 329.810913 593.114014 328.216248 592.715149 L 326.908264 593.060242 C 326.617859 596.205078 337.618164 605.837036 340.467926 609.961426 L 340.043091 611.0802 C 323.344147 592.383972 305.429016 572.506836 282.515686 561.337769 C 275.668579 558 258.067932 554.587097 251.148483 557.19104 C 249.288498 555.677124 247.901642 551.421875 245.431274 548.61853 Z"/>
            <path id="path6" fill="#fe8c84" stroke="none" d="M 340.043091 611.0802 L 340.467926 609.961426 C 337.618164 605.837036 326.617859 596.205078 326.908264 593.060242 L 328.216248 592.715149 C 329.810913 593.114014 331.104065 593.303345 332.141235 594.56958 C 337.17749 600.71814 340.992065 601.020508 346.907806 604.238647 C 351.682526 609.780518 368.782196 636.035339 370.904724 642.245117 C 370.237671 644.828674 369.864777 647.311157 368.290497 649.390015 L 366.607758 650.298218 C 358.129761 632.904419 351.330017 626.245667 340.043091 611.0802 Z"/>
            <path id="path7" fill="#d50301" stroke="none" d="M 265.264771 725.451294 C 268.898468 728.615601 274.395813 734.695496 274.6138 739.72345 C 273.380005 739.800415 273.681519 739.806946 272.50058 739.626953 C 274.267792 744.544556 278.099976 747.977844 278.699249 752.790527 C 277.651001 751.540039 276.272491 749.284912 275.328125 747.851685 C 272.538605 739.734619 267.837189 735.17041 265.264771 725.451294 Z"/>
            <path id="path8" fill="#580000" stroke="none" d="M 300.532837 783.398926 L 302.879791 780.776428 C 303.049561 780.807983 305.69809 781.253235 305.90213 781.047302 C 309.21579 777.694702 311.790985 773.413513 314.569336 769.611023 C 321.609406 759.883484 330.134674 751.322021 339.831573 744.239319 C 359.932281 729.469971 390.394958 714.038208 416.262054 715.270142 C 417.734222 715.339722 417.764862 715.397217 419.364166 715.156982 C 440.228271 724.286133 435.898865 725.9151 446.787872 744.680908 C 459.742706 767.005188 477.577118 788.10498 496.582245 805.495972 C 504.473846 812.677063 513.807129 818.428528 522.354675 824.727417 L 522.75354 825.865662 C 519.894531 831.131104 499.636108 837.176697 493.580292 838.956909 C 431.576874 857.178101 355.323608 841.96344 306.442963 799.218384 C 301.053223 794.504944 297.873199 790.871277 300.532837 783.398926 Z"/>
            <path id="path9" fill="#fe2517" stroke="none" d="M 308.625793 787.440796 C 323.128021 756.126465 395.690094 701.837524 427.651001 728.161926 C 432.402496 733.432922 441.855438 750.861938 446.498413 758.079163 C 459.588745 778.433167 474.141968 793.977112 491.883606 810.240967 C 496.558105 814.526794 501.965454 819.901672 507.214233 823.334045 L 507.612152 824.515015 C 506.95166 824.839661 506.141846 825.294189 505.45813 825.486267 C 503.589783 826.477905 501.080475 827.558655 499.128662 828.193176 C 445.157928 845.760376 384.116486 836.455933 334.778534 809.549866 C 330.483429 807.207458 308.843781 792.106934 307.622986 788.809998 L 308.625793 787.440796 Z"/>
            <path id="path10" fill="#fe8c84" stroke="none" d="M 427.651001 728.161926 C 432.402496 733.432922 441.855438 750.861938 446.498413 758.079163 C 459.588745 778.433167 474.141968 793.977112 491.883606 810.240967 C 496.558105 814.526794 501.965454 819.901672 507.214233 823.334045 L 507.612152 824.515015 C 506.95166 824.839661 506.141846 825.294189 505.45813 825.486267 L 500.241882 825.501099 L 501.686218 823.904541 C 500.028473 823.531677 497.219482 822.565918 495.497772 822.03717 C 469.655762 816.964661 439.924957 782.201294 427.06192 760.838989 C 423.53125 754.97522 424.056274 747.635498 421.394775 743.391418 C 423.256622 737.860718 427.657501 740.619568 428.165833 732.593384 L 427.966431 731.883728 L 427.651001 728.161926 Z"/>
            <path id="path11" fill="#d50301" stroke="none" d="M 427.651001 728.161926 C 432.402496 733.432922 441.855438 750.861938 446.498413 758.079163 C 459.588745 778.433167 474.141968 793.977112 491.883606 810.240967 C 496.558105 814.526794 501.965454 819.901672 507.214233 823.334045 L 507.612152 824.515015 C 506.95166 824.839661 506.141846 825.294189 505.45813 825.486267 L 500.241882 825.501099 L 501.686218 823.904541 C 500.028473 823.531677 497.219482 822.565918 495.497772 822.03717 C 492.88916 819.785706 491.161865 819.243042 492.840027 815.980469 C 491.920685 814.575012 488.793549 811.672363 487.373291 810.427429 C 461.682434 787.900879 444.802643 762.00415 428.165833 732.593384 L 427.966431 731.883728 L 427.651001 728.161926 Z"/>
            <path id="path12" fill="#fed7d5" stroke="none" d="M 495.497772 822.03717 C 492.88916 819.785706 491.161865 819.243042 492.840027 815.980469 C 494.682343 817.452637 501.184387 822.261658 501.686218 823.904541 C 500.028473 823.531677 497.219482 822.565918 495.497772 822.03717 Z"/>
            <path id="path13" fill="#b90000" stroke="none" d="M 308.625793 787.440796 C 309.475494 788.844299 313.829102 791.301697 315.657471 792.649597 C 369.463104 832.320374 436.478668 843.179626 500.241882 825.501099 L 505.45813 825.486267 C 503.589783 826.477905 501.080475 827.558655 499.128662 828.193176 C 445.157928 845.760376 384.116486 836.455933 334.778534 809.549866 C 330.483429 807.207458 308.843781 792.106934 307.622986 788.809998 L 308.625793 787.440796 Z"/>
            <path id="path14" fill="#fefdfe" stroke="none" d="M 383.812225 732.900513 C 399.795959 725.449402 412.431671 719.965088 427.966431 731.883728 L 428.165833 732.593384 C 427.657501 740.619568 423.256622 737.860718 421.394775 743.391418 C 420.189789 747.288574 419.898499 749.884155 419.340027 753.953857 C 408.867615 732.52478 409.833313 727.257446 383.812225 732.900513 Z"/>
            <path id="path15" fill="#b90000" stroke="none" d="M 373.042999 738.590759 C 372.596771 748.022339 367.801636 748.559448 376.005035 759.768494 C 403.715332 797.633057 442.8638 814.02771 487.583862 822.113281 C 475.530701 826.267334 447.477081 827.498352 434.463776 826.473267 C 402.545563 824.564148 371.294312 816.522217 342.418823 802.78717 C 337.83429 800.577454 317.787415 789.858276 316.429321 785.994568 C 318.239197 782.904419 322.239288 778.97583 324.623413 776.069458 C 338.945618 758.615356 353.587921 749.132813 373.042999 738.590759 Z"/>
            <path id="path16" fill="#fe2517" stroke="none" d="M 243.919174 715.789673 C 244.740143 710.825684 240.478439 702.796753 238.562805 697.930176 C 235.436569 690.166504 232.880844 682.185852 230.917908 674.050171 C 223.096741 640.48999 225.812027 605.82312 233.561768 572.267517 C 244.975784 522.845154 281.245697 531.550415 312.66391 559.321899 C 335.153381 579.200928 353.57959 605.079102 368.066956 632.269043 C 369.325806 635.140137 371.392609 639.177368 373.183075 641.720093 L 372.416779 643.437195 L 370.904724 642.245117 C 368.782196 636.035339 351.682526 609.780518 346.907806 604.238647 C 346.354004 602.108765 339.4039 592.921997 337.816681 590.890442 C 325.196686 574.730469 311.19635 559.103027 293.021484 549.083252 C 283.652069 543.917114 272.762177 539.662842 261.85376 541.739868 C 256.676422 542.725037 251.04364 546.359619 246.212357 548.427429 C 245.951675 548.491455 245.691925 548.55542 245.431274 548.61853 C 247.901642 551.421875 249.288498 555.677124 251.148483 557.19104 C 252.039032 565.602234 246.806076 582.919922 244.974854 592.281982 C 243.039749 601.981628 241.720612 611.794495 241.023926 621.661133 L 240.885681 634.701355 C 241.358795 667.123291 250.593735 701.298523 264.51059 730.492249 C 266.607117 734.890259 271.569214 745.340454 275.328125 747.851685 C 276.272491 749.284912 277.651001 751.540039 278.699249 752.790527 C 279.863495 755.521606 281.922882 757.759155 283.806061 760.0802 L 285.999084 762.867798 C 285.617798 764.849365 285.402588 768.57019 284.487885 769.800293 C 279.556396 764.067261 275.028473 758.872375 270.584961 752.727478 C 267.745361 750.449097 266.577423 749.327637 263.17569 747.99353 C 259.719177 744.528748 246.541687 720.865845 243.919174 715.789673 Z"/>
            <linearGradient id="linearGradient3" x1="237.677461" y1="720.403188" x2="280.930892" y2="676.898249" gradientUnits="userSpaceOnUse">
                <stop offset="1e-05" stop-color="#ff7267" stop-opacity="1"/>
                <stop offset="1" stop-color="#ffbbba" stop-opacity="1"/>
            </linearGradient>
            <path id="path17" fill="url(#linearGradient3)" stroke="none" d="M 230.202682 635.058472 C 234.130432 634.634521 237.523819 636.027954 240.885681 634.701355 C 241.358795 667.123291 250.593735 701.298523 264.51059 730.492249 C 266.607117 734.890259 271.569214 745.340454 275.328125 747.851685 C 276.272491 749.284912 277.651001 751.540039 278.699249 752.790527 C 279.863495 755.521606 281.922882 757.759155 283.806061 760.0802 L 285.999084 762.867798 C 285.617798 764.849365 285.402588 768.57019 284.487885 769.800293 C 279.556396 764.067261 275.028473 758.872375 270.584961 752.727478 C 266.685028 745.846985 260.346313 738.690979 256.378662 731.275146 C 239.481216 699.692749 231.361328 670.43689 230.202682 635.058472 Z"/>
            <path id="path18" fill="#fefdfe" stroke="none" d="M 245.431274 548.61853 C 247.901642 551.421875 249.288498 555.677124 251.148483 557.19104 C 252.039032 565.602234 246.806076 582.919922 244.974854 592.281982 C 243.039749 601.981628 241.720612 611.794495 241.023926 621.661133 C 237.686188 621.355957 234.674973 619.100769 230.399353 618.574829 C 230.388229 596.070557 236.573898 569.266541 245.431274 548.61853 Z"/>
            <path id="path19" fill="#fed7d5" stroke="none" d="M 230.399353 618.574829 C 234.674973 619.100769 237.686188 621.355957 241.023926 621.661133 L 240.885681 634.701355 C 237.523819 636.027954 234.130432 634.634521 230.202682 635.058472 C 229.79451 629.678101 230.179489 623.987732 230.399353 618.574829 Z"/>
            <path id="path20" fill="#580000" stroke="none" d="M 257.97702 755.987305 C 235.745499 728.405029 221.911209 683.550415 218.707962 648.670166 C 215.984329 619.858643 219.348053 590.795837 228.579269 563.367493 C 234.841949 544.213013 241.536926 530.822144 263.809265 528.874084 C 266.201721 530.987244 282.500793 533.319458 289.706024 537.423462 C 327.579895 558.992615 354.284637 594.87384 372.83609 633.519531 C 374.702576 636.066895 376.204437 638.861938 377.298187 641.823975 L 376.463257 642.258118 C 377.291656 643.953918 378.453125 645.77771 378.363129 647.589478 L 377.67572 647.472534 C 376.363098 644.512329 375.928925 642.869446 373.183075 641.720093 C 371.392609 639.177368 369.325806 635.140137 368.066956 632.269043 C 353.57959 605.079102 335.153381 579.200928 312.66391 559.321899 C 281.245697 531.550415 244.975784 522.845154 233.561768 572.267517 C 225.812027 605.82312 223.096741 640.48999 230.917908 674.050171 C 232.880844 682.185852 235.436569 690.166504 238.562805 697.930176 C 240.478439 702.796753 244.740143 710.825684 243.919174 715.789673 C 233.344681 701.418213 222.452042 646.295288 225.479919 629.178955 L 225.629288 628.378418 C 226.845459 621.579468 223.970627 605.119873 227.414124 598.185669 C 220.671844 587.213196 228.095016 583.765015 226.969772 575.620117 C 224.019775 578.012573 220.95665 601.473267 220.41951 606.647766 C 216.625366 640.935242 221.122681 675.633789 233.533005 707.820068 C 238.588791 721.105164 244.206741 732.956116 252.172623 744.701294 C 253.956528 747.330322 258.066101 753.106934 257.97702 755.987305 Z"/>
            <path id="path21" fill="#7d0100" stroke="none" d="M 368.066956 632.269043 L 368.875916 632.041748 L 368.600403 631.322754 C 367.861053 629.36731 367.342468 628.584351 367.922241 626.621338 L 368.923187 627.949768 L 367.747864 628.342224 L 369.284973 628.735596 C 370.255341 631.37561 370.47702 631.963806 372.83609 633.519531 C 374.702576 636.066895 376.204437 638.861938 377.298187 641.823975 L 376.463257 642.258118 C 377.291656 643.953918 378.453125 645.77771 378.363129 647.589478 L 377.67572 647.472534 C 376.363098 644.512329 375.928925 642.869446 373.183075 641.720093 C 371.392609 639.177368 369.325806 635.140137 368.066956 632.269043 Z"/>
            <path id="path22" fill="#b90000" stroke="none" d="M 363.801544 572.268433 C 364.298767 572.807495 364.97879 573.668335 365.569672 573.988281 C 369.296143 576.904907 375.756409 586.94043 378.4021 591.062073 C 400.545502 625.56665 415.641418 661.351379 427.740967 700.391296 C 439.05484 700.611206 452.696136 698.304932 463.862488 696.303101 C 512.943481 687.44104 560.12738 670.172546 603.336304 645.257324 C 613.039612 639.722839 621.968445 632.978638 630.364746 625.652832 C 630.767395 625.302246 640.364075 621.075806 640.638672 621.051636 C 642.117371 620.810486 643.944885 619.582275 645.303894 618.802124 L 646.439392 618.797485 C 645.134155 624.089722 614.097168 643.849976 607.276001 647.878906 C 559.926086 675.845215 506.107513 695.46167 451.605225 703.244812 C 443.492798 704.402527 434.779205 705.995361 426.730743 704.881226 C 424.586914 704.539795 424.006165 702.835693 423.139771 701.087952 C 423.018219 699.17334 418.332581 684.906677 417.530182 682.65802 C 404.054871 644.902954 385.336395 606.642212 361.165131 574.665527 C 361.64566 574.113525 363.17627 572.825073 363.801544 572.268433 Z"/>
            <path id="path23" fill="#fe2517" stroke="none" d="M 365.569672 573.988281 C 369.296143 576.904907 375.756409 586.94043 378.4021 591.062073 C 400.545502 625.56665 415.641418 661.351379 427.740967 700.391296 C 439.05484 700.611206 452.696136 698.304932 463.862488 696.303101 C 512.943481 687.44104 560.12738 670.172546 603.336304 645.257324 C 613.039612 639.722839 621.968445 632.978638 630.364746 625.652832 C 630.767395 625.302246 640.364075 621.075806 640.638672 621.051636 C 633.322144 627.556396 622.948975 634.029724 614.550842 639.365723 C 567.639648 668.851563 515.351685 688.748169 460.70932 697.905151 C 454.42627 698.9599 430.828247 704.035156 426.328186 699.361572 L 425.178772 696.047974 C 417.295471 666.825562 401.75705 633.560303 386.810486 606.900146 C 381.124786 596.75885 372.113464 583.925537 365.569672 573.988281 Z"/>
            <path id="path24" fill="#d50301" stroke="none" d="M 387.521088 694.839233 C 389.952454 695.779907 391.830048 696.719604 394.422913 696.811401 L 396.248535 697.589722 C 394.801361 699.953491 388.444092 699.065674 386.002472 701.804199 C 352.358795 709.285767 300.968811 738.380188 286.268982 770.7771 L 284.702209 770.666748 L 284.487885 769.800293 C 285.402588 768.57019 285.617798 764.849365 285.999084 762.867798 C 299.029053 732.46167 335.917755 714.124512 365.052948 702.256836 C 369.565155 700.419067 384.504303 697.222412 387.521088 694.839233 Z"/>
            <path id="path25" fill="#b90000" stroke="none" d="M 386.002472 701.804199 C 388.765991 701.526733 391.409821 701.025757 394.062012 701.66687 C 355.783722 711.835022 310.57666 735.591675 290.07428 770.861511 C 288.981506 772.747437 287.909119 774.645508 286.858063 776.555542 L 280.382019 770.375366 L 284.702209 770.666748 L 286.268982 770.7771 C 300.968811 738.380188 352.358795 709.285767 386.002472 701.804199 Z"/>
            <path id="path26" fill="#fe2517" stroke="none" d="M 370.904724 642.245117 L 372.416779 643.437195 C 378.497681 655.653625 383.949524 668.173401 388.749298 680.947388 C 390.394958 685.2323 392.801331 693.129517 394.422913 696.811401 C 391.830048 696.719604 389.952454 695.779907 387.521088 694.839233 C 384.96814 686.223938 378.840912 673.016724 374.675629 665.054565 C 373.060608 660.818848 368.884216 655.06366 366.607758 650.298218 L 368.290497 649.390015 C 369.864777 647.311157 370.237671 644.828674 370.904724 642.245117 Z"/>
            <path id="path27" fill="#b90000" stroke="none" d="M 290.438843 512.532227 C 315.650055 521.701355 338.782379 541.597961 355.587067 562.094727 C 358.297699 565.422302 361.205963 568.873169 363.801544 572.268433 C 363.17627 572.825073 361.64566 574.113525 361.165131 574.665527 C 344.151703 553.440552 318.655701 526.60498 292.955627 516.8255 C 291.790497 515.321777 291.309052 514.233582 290.438843 512.532227 Z"/>
            <linearGradient id="linearGradient4" x1="392.319819" y1="669.44991" x2="382.341964" y2="676.355378" gradientUnits="userSpaceOnUse">
                <stop offset="1e-05" stop-color="#870000" stop-opacity="1"/>
                <stop offset="1" stop-color="#b80100" stop-opacity="1"/>
            </linearGradient>
            <path id="path28" fill="url(#linearGradient4)" stroke="none" d="M 373.183075 641.720093 C 375.928925 642.869446 376.363098 644.512329 377.67572 647.472534 L 378.363129 647.589478 C 378.453125 645.77771 377.291656 643.953918 376.463257 642.258118 L 377.298187 641.823975 C 382.886414 652.898499 397.675293 688.978149 399.835815 700.305908 C 398.641937 701.639954 395.835754 701.754028 394.062012 701.66687 C 391.409821 701.025757 388.765991 701.526733 386.002472 701.804199 C 388.444092 699.065674 394.801361 699.953491 396.248535 697.589722 L 394.422913 696.811401 C 392.801331 693.129517 390.394958 685.2323 388.749298 680.947388 C 383.949524 668.173401 378.497681 655.653625 372.416779 643.437195 L 373.183075 641.720093 Z"/>
            <path id="path29" fill="#d50301" stroke="none" d="M 263.17569 747.99353 C 266.577423 749.327637 267.745361 750.449097 270.584961 752.727478 C 275.028473 758.872375 279.556396 764.067261 284.487885 769.800293 L 284.702209 770.666748 L 280.382019 770.375366 C 275.530334 765.736206 266.605255 753.738647 263.17569 747.99353 Z"/>
            <linearGradient id="linearGradient5" x1="576.412314" y1="639.054043" x2="474.9919" y2="213.745026" gradientUnits="userSpaceOnUse">
                <stop offset="1e-05" stop-color="#2c0000" stop-opacity="1"/>
                <stop offset="1" stop-color="#620000" stop-opacity="1"/>
            </linearGradient>
            <path id="path30" fill="url(#linearGradient5)" stroke="none" d="M 260.035522 524.16333 C 256.349915 525.022339 250.380371 525.536316 250.548279 520.026855 C 250.762558 513.000732 254.872147 501.69989 257.557739 495.156189 C 321.88028 338.447266 465.741943 192.741394 641.276917 177.52948 C 672.252625 174.844849 731.348694 178.543457 756.240845 199.038391 C 739.626282 208.897644 723.397705 216.015686 706.695007 227.651367 C 673.450256 250.810547 616.177917 303.830444 602.633118 341.674622 C 603.890991 346.826843 604.709229 350.387268 606.647095 355.349365 C 608.378174 359.780823 613.689026 368.765259 614.477539 372.711487 C 612.564697 375.689331 593.531738 378.82489 587.287598 382.372314 C 580.023987 386.500366 579.78186 386.697083 573.34845 392.243591 C 575.112915 406.902588 576.797546 419.47522 579.494263 434.032227 C 567.21759 436.83374 555.861084 444.472107 545.578796 451.530762 C 540.596313 470.895813 539.772522 482.859924 544.237366 502.63501 C 544.222534 500.797241 543.836609 494.670044 544.624207 494.366638 C 554.889832 490.413879 569.909668 489.865662 580.775391 485.779297 C 612.900513 473.700134 629.06134 459.855652 648.593384 433.297485 C 642.983765 432.342896 631.054993 430.813171 630.499268 424.057922 C 631.157898 422.507751 632.374084 420.644104 633.788757 419.745178 C 646.061829 411.939758 656.780029 404.638123 667.953857 395.130432 C 692.424744 374.301514 712.660889 348.958618 727.56012 320.481995 C 737.993591 300.060364 745.414917 278.355713 749.171997 255.782837 C 749.598694 253.259583 750.878906 244.846619 752.660034 243.247314 C 756.370605 243.662903 761.621216 250.442261 763.949707 253.495239 C 816.056763 321.860535 815.82489 425.712891 784.608826 502.374329 C 765.805054 548.52478 732.600098 595.395203 685.948669 614.544067 C 683.205566 615.670288 673.756348 614.494934 670.435364 614.198975 C 665.64209 614.56543 637.095886 606.879639 635.395508 607.858398 C 624.638245 609.885376 597.98175 594.803345 588.708801 588.74939 C 585.70874 586.791077 579.834717 581.9505 577.201111 580.864258 C 576.89679 582.476501 580.192871 582.375366 580.561096 585.613892 C 574.904175 582.713013 559.458557 566.045654 555.054016 560.926819 C 558.445496 561.014038 561.606995 567.989136 565.422546 569.158936 C 539.035034 544.453308 522.173767 503.013489 527.43457 467.12854 C 528.942932 456.837952 531.038574 444.24762 539.516479 437.521118 C 543.884888 434.779846 563.982788 428.44574 569.935608 427.55426 C 565.600586 414.54657 560.623657 398.802124 559.324036 385.143188 C 560.070801 383.747009 561.876953 380.508606 562.865845 379.369385 C 570.653625 370.397949 592.547485 369.896057 603.879883 368.853394 C 598.251709 356.555298 594.440857 348.02356 590.278381 335.199463 C 594.382385 326.243835 599.937317 319.81134 603.618225 312.095032 C 609.730713 306.611572 621.755066 289.382996 628.850769 281.654541 C 660.367371 247.330872 696.426697 216.199341 739.301575 197.199768 L 736.268127 196.806458 C 734.598328 195.414917 733.902527 195.593994 731.595459 195.424194 C 715.746277 190.942688 697.292236 187.005615 680.802917 185.920288 C 618.455383 181.8172 554.021484 201.107056 499.976563 230.936218 C 415.664642 277.470764 347.477386 349.183105 299.875092 432.383728 C 289.123444 451.175476 275.404175 476.082397 269.082123 496.715576 L 264.457703 496.917725 L 258.655151 513.789246 L 258.240479 514.922852 C 259.756287 515.689087 261.492889 515.067627 263.402954 514.579651 C 260.166321 516.704895 255.078064 518.90625 253.0168 521.179077 C 253.779343 524.294189 257.339722 523.652222 260.035522 524.16333 Z"/>
            <path id="path31" fill="#fe2517" stroke="none" d="M 264.457703 496.917725 C 268.263 487.427734 272.345673 478.050903 276.70105 468.799255 C 339.680328 335.276428 466.702972 212.381042 616.148254 186.626221 C 650.530396 180.701233 707.384277 180.921021 739.579956 196.211792 L 739.301575 197.199768 L 736.268127 196.806458 C 734.598328 195.414917 733.902527 195.593994 731.595459 195.424194 C 715.746277 190.942688 697.292236 187.005615 680.802917 185.920288 C 618.455383 181.8172 554.021484 201.107056 499.976563 230.936218 C 415.664642 277.470764 347.477386 349.183105 299.875092 432.383728 C 289.123444 451.175476 275.404175 476.082397 269.082123 496.715576 L 264.457703 496.917725 Z"/>
            <path id="path32" fill="#fe2517" stroke="none" d="M 651.343018 415.672729 C 653.998901 413.992676 656.580627 412.199524 659.08252 410.296875 C 708.460388 372.889648 747.381592 317.902161 756.055237 255.613037 C 759.969971 261.218994 763.597168 266.432434 767.187256 272.24707 C 770.712402 275.084839 775.174438 283.521057 776.983459 287.808716 C 813.236633 373.445313 799.442261 484.966675 742.084595 558.405396 C 729.944214 573.950317 714.230469 589.330994 696.794983 598.789551 C 693.766113 601.073425 689.960876 602.745117 686.521057 604.416748 C 680.605347 603.209839 672.337036 602.946411 665.291382 601.560486 C 637.317627 596.190186 611.33551 583.298401 590.135559 564.270142 C 575.623108 551.140869 555.510437 527.772949 554.521484 507.432922 C 553.414795 504.019958 552.712524 502.189697 552.37207 498.604309 C 560.016113 496.325073 568.789001 496.799072 578.764221 493.218262 C 617.656616 479.255981 640.829773 462.124695 659.144714 425.583862 C 650.330933 425.896545 647.234375 425.514343 638.952209 423.47998 C 643.648987 420.938171 646.960754 418.666321 651.343018 415.672729 Z"/>
            <path id="path33" fill="#fefdfe" stroke="none" d="M 650.04425 419.146851 C 651.921875 418.137512 655.064819 416.098511 656.831055 414.856384 C 709.154297 378.038269 745.220093 324.571167 757.669373 262.273743 C 759.042297 273.385315 758.624878 284.645325 756.426331 295.623352 C 749.468811 331.530579 727.090759 368.784729 700.991699 394.212036 C 694.633484 400.406067 682.36792 409.431335 674.809265 414.560486 C 669.044739 417.147705 663.450928 419.84259 657.264343 421.258179 L 644.146179 423.163574 L 650.04425 419.146851 Z"/>
            <path id="path34" fill="#fefdfe" stroke="none" d="M 651.343018 415.672729 L 650.04425 419.146851 L 644.146179 423.163574 L 657.264343 421.258179 C 660.836731 424.262024 661.482422 423.47998 665.921265 425.132141 C 669.72937 423.105164 671.957642 419.994751 674.566223 416.665344 C 670.228455 432.805786 665.052063 443.706787 653.78186 456.207153 C 631.10968 481.350586 592.964966 503.687866 558.035522 501.208191 L 556.992798 500.545837 C 558.105103 499.732361 558.10321 499.684082 559.384338 499.214722 C 556.982605 499.096863 554.754395 498.855713 552.37207 498.604309 C 560.016113 496.325073 568.789001 496.799072 578.764221 493.218262 C 617.656616 479.255981 640.829773 462.124695 659.144714 425.583862 C 650.330933 425.896545 647.234375 425.514343 638.952209 423.47998 C 643.648987 420.938171 646.960754 418.666321 651.343018 415.672729 Z"/>
            <path id="path35" fill="#fe2517" stroke="none" d="M 651.343018 415.672729 L 650.04425 419.146851 L 644.146179 423.163574 L 657.264343 421.258179 C 660.836731 424.262024 661.482422 423.47998 665.921265 425.132141 L 665.265442 425.75 C 659.161377 431.597961 652.151917 444.388611 645.263123 452.563232 C 625.533447 475.977539 591.714478 496.626465 560.858398 499.287109 C 560.465027 499.320435 559.795288 499.250854 559.384338 499.214722 C 556.982605 499.096863 554.754395 498.855713 552.37207 498.604309 C 560.016113 496.325073 568.789001 496.799072 578.764221 493.218262 C 617.656616 479.255981 640.829773 462.124695 659.144714 425.583862 C 650.330933 425.896545 647.234375 425.514343 638.952209 423.47998 C 643.648987 420.938171 646.960754 418.666321 651.343018 415.672729 Z"/>
            <path id="path36" fill="#b90000" stroke="none" d="M 767.187256 272.24707 C 770.712402 275.084839 775.174438 283.521057 776.983459 287.808716 C 813.236633 373.445313 799.442261 484.966675 742.084595 558.405396 C 729.944214 573.950317 714.230469 589.330994 696.794983 598.789551 L 693.653931 597.09375 C 731.34967 575.39563 757.084961 537.46521 773.64386 497.931702 C 797.095215 441.948853 800.481201 370.260681 783.458557 311.881592 C 778.792358 295.896118 773.161499 286.762268 767.187256 272.24707 Z"/>
            <path id="path37" fill="#b90000" stroke="none" d="M 554.521484 507.432922 C 570.124878 545.465393 596.281311 573.164551 634.380615 588.986877 C 649.134216 595.114136 679.268555 605.459473 693.653931 597.09375 L 696.794983 598.789551 C 693.766113 601.073425 689.960876 602.745117 686.521057 604.416748 C 680.605347 603.209839 672.337036 602.946411 665.291382 601.560486 C 637.317627 596.190186 611.33551 583.298401 590.135559 564.270142 C 575.623108 551.140869 555.510437 527.772949 554.521484 507.432922 Z"/>
            <path id="path38" fill="#b90000" stroke="none" d="M 771.38031 309.659912 L 772.558472 307.957581 C 789.015259 361.99884 786.352844 408.663269 770.397034 462.885376 C 764.21875 483.861816 757.12207 502.018982 746.852783 521.359924 C 733.661438 546.714966 716.12384 569.5578 695.040771 588.85144 C 692.166809 591.472107 686.583252 596.864624 683.032104 597.980591 C 677.297241 597.212524 671.375061 595.339539 665.773804 593.880249 C 626.724609 583.701904 605.024658 568.069824 578.778137 538.920654 C 636.213684 534.089417 684.87262 508.901367 722.221375 464.687866 C 758.179626 422.613525 775.963074 367.981323 771.667969 312.797302 C 771.575073 311.750854 771.482361 310.705383 771.38031 309.659912 Z"/>
            <path id="path39" fill="#d50301" stroke="none" d="M 771.38031 309.659912 C 770.888611 306.844482 769.023987 299.973206 769.970215 297.651245 L 769.571411 299.349792 L 770.82373 299.625305 C 771.44519 302.393494 772.020447 305.170898 772.558472 307.957581 L 771.38031 309.659912 Z"/>
            <path id="path40" fill="#fefdfe" stroke="none" d="M 269.082123 496.715576 C 275.404175 476.082397 289.123444 451.175476 299.875092 432.383728 C 347.477386 349.183105 415.664642 277.470764 499.976563 230.936218 C 554.021484 201.107056 618.455383 181.8172 680.802917 185.920288 C 697.292236 187.005615 715.746277 190.942688 731.595459 195.424194 C 726.995178 196.125488 707.983582 193.231201 702.063232 192.820251 C 682.433777 191.528015 662.722717 192.297058 643.252869 195.113403 C 604.152649 200.812988 561.340759 217.036987 526.269409 235.116272 C 454.854828 271.931702 390.343933 331.689209 340.335327 394.104492 C 319.107452 420.926086 300.01239 449.370178 283.226288 479.175232 C 281.925659 481.436829 275.881927 491.726563 275.395844 493.681152 C 272.549744 498.764771 270.970856 502.311218 266.968903 506.461609 L 266.147919 506.238037 C 266.172058 503.230591 267.919769 499.59967 269.082123 496.715576 Z"/>
            <path id="path41" fill="#d50301" stroke="none" d="M 551.353516 334.846008 C 553.607727 333.499084 558.341614 326.90332 560.769287 324.26416 C 569.496826 314.758301 579.1427 305.721008 590.290466 299.086365 C 594.598572 296.522217 605.278809 292.931274 608.00708 299.624329 C 609.235291 302.636536 605.096924 308.982666 603.618225 312.095032 C 599.937317 319.81134 594.382385 326.243835 590.278381 335.199463 C 594.440857 348.02356 598.251709 356.555298 603.879883 368.853394 C 592.547485 369.896057 570.653625 370.397949 562.865845 379.369385 C 561.876953 380.508606 560.070801 383.747009 559.324036 385.143188 C 560.623657 398.802124 565.600586 414.54657 569.935608 427.55426 C 563.982788 428.44574 543.884888 434.779846 539.516479 437.521118 L 539.051758 437.706604 C 537.31604 438.395935 533.96344 439.872803 532.194397 439.824585 C 521.805481 439.544434 519.956604 431.917969 519.244141 423.487366 C 518.110596 410.060303 521.002136 398.461731 524.995728 385.870544 C 524.823181 385.395508 524.649719 384.920532 524.477173 384.445618 C 527.676697 374.152222 544.436829 342.949158 551.353516 334.846008 Z"/>
            <path id="path42" fill="#b90000" stroke="none" d="M 736.268127 196.806458 L 739.301575 197.199768 C 696.426697 216.199341 660.367371 247.330872 628.850769 281.654541 C 621.755066 289.382996 609.730713 306.611572 603.618225 312.095032 C 605.096924 308.982666 609.235291 302.636536 608.00708 299.624329 C 605.278809 292.931274 594.598572 296.522217 590.290466 299.086365 C 579.1427 305.721008 569.496826 314.758301 560.769287 324.26416 C 558.341614 326.90332 553.607727 333.499084 551.353516 334.846008 C 553.618896 329.582458 566.611816 311.034668 570.155457 306.191345 C 603.100647 261.170715 645.401306 221.887756 699.469421 204.620117 C 712.701721 200.393738 722.75293 198.886292 736.268127 196.806458 Z"/>
            <path id="path43" fill="#b90000" stroke="none" d="M 524.477173 384.445618 C 524.649719 384.920532 524.823181 385.395508 524.995728 385.870544 C 521.002136 398.461731 518.110596 410.060303 519.244141 423.487366 C 519.956604 431.917969 521.805481 439.544434 532.194397 439.824585 C 533.96344 439.872803 537.31604 438.395935 539.051758 437.706604 L 539.516479 437.521118 C 531.038574 444.24762 528.942932 456.837952 527.43457 467.12854 C 522.173767 503.013489 539.035034 544.453308 565.422546 569.158936 C 561.606995 567.989136 558.445496 561.014038 555.054016 560.926819 C 552.990906 559.744934 549.599304 554.18457 547.433228 551.6297 C 542.360718 551.829224 533.965332 543.930054 530.222229 540.727783 C 525.374207 535.361206 521.631042 531.500244 519.990051 524.513062 C 515.806213 519.073242 512.38501 513.087036 509.820953 506.720398 C 494.574768 468.289978 508.750427 420.301758 524.477173 384.445618 Z"/>
            <path id="path44" fill="#d50301" stroke="none" d="M 519.990051 524.513062 C 528.589539 533.279541 534.56366 535.235107 542.783691 543.182373 C 543.700256 544.068298 546.642822 550.046204 547.433228 551.6297 C 542.360718 551.829224 533.965332 543.930054 530.222229 540.727783 C 525.374207 535.361206 521.631042 531.500244 519.990051 524.513062 Z"/>
            <path id="path45" fill="#7d0100" stroke="none" d="M 276.798462 509.85968 C 282.942383 510.616638 284.437775 511.014587 290.438843 512.532227 C 291.309052 514.233582 291.790497 515.321777 292.955627 516.8255 C 291.793274 516.362671 290.614197 515.942383 289.421204 515.56665 C 283.035187 513.51001 269.392883 511.534119 263.402954 514.579651 C 261.492889 515.067627 259.756287 515.689087 258.240479 514.922852 L 258.655151 513.789246 L 259.370392 514.078674 C 265.341766 511.054504 270.152649 509.923645 276.798462 509.85968 Z"/>
        </g>
    </g>
</svg>
