<?xml version="1.0" encoding="UTF-8"?>
<!-- Generated by Pixelmator Pro 3.7.1 -->
<svg width="1024" height="1024" viewBox="0 0 1024 1024" xmlns="http://www.w3.org/2000/svg">
    <path id="Shape" fill="#ffffff" fill-rule="evenodd" stroke="none" visibility="hidden" d="M 0 1024 L 1024 1024 L 1024 0 L 0 0 Z"/>
    <g id="Group">
        <path id="Path" fill="#f8192f" stroke="none" visibility="hidden" d="M 531.421082 264.958679 C 538.50824 247.697205 543.249939 232.580322 552.202881 215.65448 C 574.192627 174.081909 606.017944 135.37323 652.407288 120.816833 C 674.455383 113.899109 694.243591 113.358032 714.821594 124.115417 C 688.885925 129.610962 675.550964 128.223206 649.744141 143.584351 C 601.276245 172.433411 567.048523 232.220642 552.833862 285.661011 C 553.933899 287.989929 557.299805 294.883789 557.551636 297.011841 C 558.761047 307.238586 553.807922 315.674561 558.062683 326.045166 C 560.289612 331.52124 564.680664 335.832886 570.195679 337.960938 C 577.921265 340.938782 583.63562 339.53009 590.74823 336.55365 C 602.245911 354.237854 611.886719 379.5755 618.569153 399.687439 C 621.497559 411.893921 625.455505 423.231201 627.962708 435.984741 C 636.608398 479.967224 640.13031 529.154419 631.829285 573.361633 C 564.799072 527.359009 458.851929 526.651733 391.967102 573.333191 C 391.300201 571.245544 390.712708 569.133972 390.207672 567.001343 C 387.447174 554.898193 386.979584 534.099976 386.781769 521.731567 C 385.851105 463.657288 400.591858 386.941406 431.616913 336.908936 C 460.576874 347.30658 469.522308 325.842834 465.912079 300.939819 C 465.514893 297.503357 469.905945 287.269043 469.24054 284.728882 C 451.77829 218.09436 404.112183 145.098022 333.32486 128.587402 C 327.986633 127.34198 313.24295 127.355469 311.291687 123.001892 C 313.903809 118.910583 326.413086 116.983276 331.165283 116.244507 C 349.021729 114.80719 366.945587 118.005371 383.204468 125.5271 C 438.946808 150.741943 470.321075 209.881775 490.675751 264.447632 C 497.034546 256.906372 502.87027 250.21344 511.109894 244.767273 C 518.646606 249.615417 525.402527 258.135315 531.421082 264.958679 Z"/>
        <path id="path1" fill="#f8192f" stroke="none" visibility="hidden" d="M 789.175659 77.078674 C 795.164246 76.981262 801.281799 76.90332 807.256897 77.243591 C 874.0578 81.041077 932.299927 128.296631 954.863586 190.351257 C 971.898743 238.140259 969.307556 290.731018 947.658081 336.613647 C 929.73114 374.956604 898.682129 407.985474 858.348938 422.549377 C 851.381714 424.854248 844.195679 426.43689 836.904663 427.274597 C 784.051758 432.822632 715.112366 400.339294 709.507324 341.858948 C 712.855347 340.370728 716.191345 338.854126 719.513794 337.309021 C 777.495178 310.28833 810.53595 264.72937 813.660645 200.146484 C 815.752808 156.887939 807.646606 116.210022 789.175659 77.078674 Z"/>
        <path id="path2" fill="#f8192f" stroke="none" visibility="hidden" d="M 213.00563 77.342468 C 219.159073 76.86438 226.748276 77.071289 233.020126 77.078674 C 231.606918 79.866272 230.229645 82.671631 228.892853 85.496643 C 206.829681 132.468872 201.209732 203.445007 219.418335 252.118225 C 232.031021 285.831848 255.790634 311.634216 287.151428 328.889648 C 295.693695 333.589355 305.105286 337.682251 313.968262 341.770569 C 313.837921 344.486084 313.553162 347.191101 313.111053 349.873779 C 304.454834 402.989014 230.523346 434.970154 182.265289 426.817505 C 162.701874 423.926575 142.246796 414.228882 127.041489 401.846985 C 4.484771 302.048828 48.778912 96.015747 213.00563 77.342468 Z"/>
        <path id="path3" fill="#f8192f" stroke="none" visibility="hidden" d="M 490.782196 556.922974 C 494.549774 556.40741 505.137726 556.488403 509.238098 556.449402 C 540.661804 556.148071 574.937378 561.468384 603.362366 575.031128 C 611.708313 579.014526 626.715881 587.43396 628.806458 596.709106 C 632.656494 613.790771 621.370178 643.009949 613.761475 657.440552 C 583.292419 640.646545 567.700439 634.560547 532.410217 630.95929 C 485.506897 626.790039 449.719116 634.24884 409.003754 657.4375 C 402.268829 644.631592 385.464417 601.522827 398.075592 589.181458 C 420.591339 567.145203 460.509399 560.077576 490.782196 556.922974 Z"/>
        <path id="path4" fill="#f8192f" stroke="none" visibility="hidden" d="M 562.696472 815.125549 C 573.510742 830.819519 590.213257 882.693726 595.618896 901.576843 C 587.181458 911.746704 573.426758 921.026245 562.243896 927.980042 C 548.83844 935.585693 520.468933 950.597656 505.791168 947.600342 C 482.257843 942.794189 441.394104 921.039795 427.500122 901.417969 C 435.484924 875.453796 446.44455 839.261414 459.59671 815.486816 C 462.363251 816.481873 467.455688 819.973755 470.069305 821.602783 C 503.448792 842.414551 532.13446 834.825378 562.696472 815.125549 Z"/>
        <path id="path5" fill="#f8192f" stroke="none" visibility="hidden" d="M 498.63208 646.206543 C 532.862854 643.952637 574.177673 650.489746 603.50177 668.942627 C 606.314697 670.712524 609.461914 673.050415 609.745117 676.470398 C 611.056396 692.3396 600.251221 719.814392 591.624878 732.103271 C 561.857239 717.950073 557.418274 714.228882 522.666016 711.427917 C 520.753723 710.895874 510.236176 710.804443 507.817352 710.859863 C 476.56897 711.58374 457.410217 717.992004 430.49292 731.755615 C 419.420898 712.548889 414.584717 696.83252 412.940704 674.961182 C 429.63269 655.763489 474.00177 647.495361 498.63208 646.206543 Z"/>
        <path id="path6" fill="#f8192f" stroke="none" visibility="hidden" d="M 758.958313 122.61969 C 760.371582 124.353638 763.647644 139.780823 764.467407 143.403076 C 770.848694 171.600098 781.550537 198.007874 793.496277 224.277771 C 782.765869 266.891907 762.634521 296.72406 725.237244 319.777832 C 719.976929 322.713623 716.462646 324.486511 710.953552 326.908386 C 694.068237 293.197754 693.255981 242.433899 702.707947 206.566711 C 710.881592 175.552063 731.709839 140.467224 758.958313 122.61969 Z"/>
        <path id="path7" fill="#f8192f" stroke="none" visibility="hidden" d="M 261.545471 122.735168 C 282.367706 132.298035 306.7388 170.255859 314.599213 191.478271 C 331.214783 236.337402 330.409973 283.066895 311.634888 326.679077 C 307.552551 324.958679 303.293396 322.620728 299.327942 320.573608 C 259.056183 296.866455 241.352631 268.027893 229.63765 223.681335 C 244.024704 191.553223 256.668854 157.674622 261.545471 122.735168 Z"/>
        <path id="path8" fill="#f8192f" stroke="none" visibility="hidden" d="M 705.870117 387.02832 C 709.020325 387.656189 714.554871 394.515564 717.131042 397.216125 C 743.400879 424.753845 782.679016 439.827271 820.971069 442.220642 C 803.024658 462.903625 766.922241 482.279602 741.858765 492.331116 C 714.007874 502.295593 684.793091 507.922974 655.233704 509.017029 C 655.004395 480.079529 649.669189 443.406128 641.309692 415.764954 C 645.883606 414.192871 655.040344 412.416931 660.32312 410.93927 C 678.782043 405.773438 690.915039 398.47345 705.870117 387.02832 Z"/>
        <path id="path9" fill="#f8192f" stroke="none" visibility="hidden" d="M 315.350067 387.121277 C 320.28656 390.139526 326.10437 395.362305 331.737793 398.8302 C 348.013123 408.845642 362.779358 411.947876 380.932526 415.908813 C 371.657379 448.670776 368.406799 474.888245 367.075989 509.234253 C 338.10556 507.133179 313.953308 503.50647 286.292694 493.762268 C 252.988174 482.287109 227.993652 466.819458 202.297775 442.957947 C 210.784637 440.832886 221.907623 439.801819 230.971466 437.579285 C 270.597321 427.85907 288.769928 415.895325 315.350067 387.121277 Z"/>
        <path id="path10" fill="#f8192f" stroke="none" visibility="hidden" d="M 498.657562 726.252563 C 520.63678 722.831177 554.137695 730.015747 574.49231 739.974182 C 592.106018 748.591431 582.658508 764.020142 574.772583 777.557373 C 563.316895 797.222717 546.223267 812.453491 523.409302 818.101929 C 483.774445 826.644287 448.130524 789.384766 438.401337 754.439209 C 433.049622 735.216003 486.744812 727.650879 498.657562 726.252563 Z"/>
        <path id="path11" fill="#f8192f" stroke="none" visibility="hidden" d="M 589.995911 782.621338 C 592.338257 783.096375 593.913391 783.625427 596.02948 784.761414 C 623.04718 799.268311 666.470581 828.175842 676.713867 857.365051 C 671.613953 872.104309 662.553101 878.521484 649.925476 886.428406 C 636.170837 893.986145 624.911438 898.323242 609.355469 900.144104 C 602.028564 866.285034 590.755737 837.14978 575.503967 806.091797 C 580.206726 799.122986 585.411499 789.973755 589.995911 782.621338 Z"/>
        <path id="path12" fill="#f8192f" stroke="none" visibility="hidden" d="M 431.835724 782.060852 C 434.408905 783.283691 444.760071 802.69281 446.829742 806.347961 C 441.328156 819.924316 435.003845 831.742615 429.493347 846.481934 C 422.380737 865.504272 419.184082 881.776611 413.201508 900.136597 C 398.393311 899.032104 389.020752 895.489258 375.943481 888.706421 C 362.070496 880.024658 352.903229 873.123413 347.463135 857.420593 C 347.899261 855.941406 348.363831 854.471191 348.856903 853.009949 C 357.712433 827.514954 407.566559 793.622986 431.835724 782.060852 Z"/>
        <path id="path13" fill="#292728" stroke="none" visibility="hidden" d="M 435.994476 281.02124 C 464.843506 279.230225 470.163757 319.346252 442.593048 327.290527 C 431.744293 327.80011 423.234924 323.501953 419.518311 312.773193 C 417.240326 306.04718 417.84729 298.67981 421.192322 292.415466 C 424.748596 285.777893 429.201111 283.236206 435.994476 281.02124 Z"/>
        <path id="path14" fill="#292728" stroke="none" visibility="hidden" d="M 579.755615 281.012207 C 608.378357 279.089355 614.452332 319.269775 586.727295 327.341492 C 582.153442 327.399963 579.677673 327.494446 575.360107 325.553589 C 569.985901 323.137817 565.827148 318.638794 563.838501 313.092346 C 558.925842 299.420166 566.341187 285.846863 579.755615 281.012207 Z"/>
    </g>
    <clipPath id="clipPath1">
        <path clip-rule="evenodd" d="M 1016.58999 513.072412 C 1016.58999 233.798272 790.193567 7.401849 510.919427 7.401849 C 231.645288 7.401849 5.248865 233.798272 5.248865 513.072412 C 5.248865 792.346551 231.645288 1018.742974 510.919427 1018.742974 C 790.193567 1018.742974 1016.58999 792.346551 1016.58999 513.072412 Z"/>
    </clipPath>
    <g id="Group-copy" clip-path="url(#clipPath1)">
        <path id="path15" fill="#ffffff" fill-rule="evenodd" stroke="none" d="M -83 1107 L 1106 1107 L 1106 -82 L -83 -82 Z"/>
        <g id="g1">
            <path id="path16" fill="#f8192f" stroke="none" d="M 525.701965 366.165344 C 530.7724 353.815796 534.164856 343.00061 540.570129 330.891174 C 556.30249 301.148438 579.071594 273.454773 612.260376 263.040527 C 628.034485 258.091309 642.191711 257.704224 656.914063 265.400452 C 638.358704 269.332214 628.818298 268.339294 610.355042 279.329285 C 575.679138 299.969055 551.191284 342.743286 541.021545 380.976624 C 541.808533 382.642822 544.216675 387.574951 544.396851 389.097473 C 545.262085 396.414124 541.718445 402.449524 544.762451 409.86908 C 546.355713 413.786865 549.497192 416.871582 553.442871 418.394104 C 558.970093 420.524536 563.05835 419.516785 568.147034 417.387268 C 576.372925 430.039246 583.270325 448.166809 588.051208 462.555725 C 590.146362 471.288757 592.978027 479.399902 594.771729 488.524292 C 600.957214 519.991089 603.476929 555.181641 597.538025 586.809204 C 549.58197 553.897095 473.783112 553.391052 425.93103 586.788818 C 425.453888 585.295288 425.0336 583.784546 424.672241 582.258789 C 422.697296 573.599731 422.362762 558.719849 422.221222 549.871033 C 421.555389 508.322327 432.101501 453.436707 454.298096 417.641479 C 475.017212 425.080322 481.417145 409.724365 478.834229 391.907715 C 478.550079 389.449158 481.691589 382.127075 481.215546 380.309753 C 468.722351 332.636719 434.620087 280.412231 383.976013 268.599915 C 380.15683 267.708862 369.608612 267.718506 368.212585 264.60376 C 370.081421 261.676697 379.031036 260.297852 382.430969 259.769287 C 395.206177 258.740967 408.029633 261.029114 419.661865 266.4104 C 459.542206 284.450134 481.988586 326.761108 496.551147 365.799744 C 501.100494 360.404419 505.275604 355.616028 511.170563 351.719666 C 516.562622 355.188171 521.396057 361.283691 525.701965 366.165344 Z"/>
            <path id="path17" fill="#f8192f" stroke="none" d="M 710.109985 231.748474 C 714.39447 231.678772 718.771179 231.623047 723.046021 231.866455 C 770.838013 234.583374 812.506775 268.391846 828.649719 312.788208 C 840.837402 346.978394 838.983582 384.603943 823.494629 417.430237 C 810.669006 444.862305 788.455322 468.492493 759.599304 478.912109 C 754.614685 480.561096 749.473511 481.693359 744.257202 482.292664 C 706.444153 486.261963 657.12207 463.022095 653.112061 421.182922 C 655.507324 420.118164 657.894043 419.033142 660.271057 417.927734 C 701.753296 398.596008 725.391968 366.001282 727.627502 319.796143 C 729.124329 288.847229 723.324829 259.744568 710.109985 231.748474 Z"/>
            <path id="path18" fill="#f8192f" stroke="none" d="M 297.894806 231.937195 C 302.297211 231.595154 307.726837 231.743164 312.213989 231.748474 C 311.202911 233.742798 310.21756 235.749878 309.261169 237.770996 C 293.476288 271.376831 289.455536 322.156006 302.482727 356.978821 C 311.506317 381.098877 328.504913 399.558899 350.941681 411.904114 C 357.053162 415.266541 363.786591 418.194702 370.127502 421.11969 C 370.034271 423.062439 369.830536 424.997742 369.514221 426.917053 C 363.321228 464.917786 310.427673 487.798401 275.901947 481.965637 C 261.905487 479.8974 247.271103 472.95929 236.392609 464.100769 C 148.710617 392.701172 180.400421 245.296814 297.894806 231.937195 Z"/>
            <path id="path19" fill="#f8192f" stroke="none" d="M 496.627289 575.04834 C 499.322784 574.679443 506.897827 574.737427 509.83139 574.709473 C 532.313171 574.493958 556.835327 578.300293 577.171692 588.003662 C 583.1427 590.853516 593.8797 596.877136 595.375366 603.512939 C 598.129883 615.733826 590.055176 636.638428 584.611633 646.962646 C 562.812805 634.94751 551.657715 630.593384 526.409668 628.016846 C 492.853149 625.034058 467.249115 630.370361 438.11972 646.960449 C 433.30127 637.798584 421.278748 606.956848 430.30127 598.127319 C 446.409943 582.361694 474.968933 577.305298 496.627289 575.04834 Z"/>
            <path id="path20" fill="#f8192f" stroke="none" d="M 548.077637 759.776855 C 555.814636 771.004883 567.764282 808.117798 571.631653 821.627563 C 565.595215 828.903442 555.754578 835.542419 547.753845 840.517456 C 538.163086 845.958862 517.866394 856.698975 507.365326 854.554626 C 490.528625 851.116089 461.293091 835.552124 451.352753 821.513855 C 457.06543 802.938049 464.906372 777.044556 474.315948 760.035278 C 476.295258 760.747192 479.938568 763.245422 481.808472 764.410889 C 505.689484 779.300476 526.212341 773.87085 548.077637 759.776855 Z"/>
            <path id="path21" fill="#f8192f" stroke="none" d="M 502.243439 638.925415 C 526.733459 637.312866 556.291748 641.989746 577.271423 655.191711 C 579.283875 656.457947 581.535522 658.130554 581.738159 660.577393 C 582.676331 671.930786 574.945801 691.587402 568.774231 700.379333 C 547.477234 690.25354 544.301392 687.591309 519.438232 685.587402 C 518.070129 685.206665 510.545441 685.141357 508.814941 685.180969 C 486.458588 685.698853 472.751648 690.283569 453.493958 700.130615 C 445.572571 686.389343 442.112579 675.145264 440.936401 659.49762 C 452.87851 645.762817 484.621918 639.847473 502.243439 638.925415 Z"/>
            <path id="path22" fill="#f8192f" stroke="none" d="M 688.491272 264.330383 C 689.502319 265.570862 691.846191 276.608093 692.432678 279.199585 C 696.998108 299.372925 704.654663 318.266113 713.201111 337.060608 C 705.52417 367.548462 691.121399 388.891602 664.365845 405.385193 C 660.602417 407.485596 658.088135 408.753967 654.146729 410.486694 C 642.066284 386.368774 641.485168 350.050232 648.247498 324.389404 C 654.095215 302.200317 668.996582 277.099182 688.491272 264.330383 Z"/>
            <path id="path23" fill="#f8192f" stroke="none" d="M 332.622131 264.412964 C 347.519196 271.254578 364.955261 298.411194 370.578918 313.594543 C 382.46637 345.688538 381.890594 379.120728 368.45813 410.322632 C 365.537476 409.091797 362.490295 407.419067 359.653259 405.954529 C 330.841217 388.993469 318.175385 368.361206 309.794006 336.633911 C 320.087097 313.648132 329.133209 289.410095 332.622131 264.412964 Z"/>
            <path id="path24" fill="#f8192f" stroke="none" d="M 650.509827 453.498901 C 652.763611 453.948059 656.723206 458.85553 658.566345 460.787659 C 677.36084 480.489258 705.461975 491.273376 732.857666 492.985718 C 720.018127 507.783081 694.188965 521.645508 676.257568 528.83667 C 656.331909 535.965698 635.430481 539.99176 614.282532 540.774536 C 614.118469 520.071472 610.301453 493.833801 604.32074 474.058228 C 607.593079 472.933472 614.144165 471.662903 617.923706 470.605713 C 631.129944 466.909912 639.810364 461.687195 650.509827 453.498901 Z"/>
            <path id="path25" fill="#f8192f" stroke="none" d="M 371.116119 453.565369 C 374.647888 455.724731 378.810181 459.461365 382.840576 461.942444 C 394.484589 469.10791 405.04892 471.327332 418.036438 474.161133 C 411.400635 497.600403 409.075012 516.357422 408.122925 540.929932 C 387.396301 539.426758 370.116821 536.832031 350.327301 529.860596 C 326.499908 521.650818 308.617828 510.584656 290.233978 493.513184 C 296.305817 491.992798 304.263641 491.255188 310.748291 489.665039 C 339.098206 482.710876 352.09964 474.151489 371.116119 453.565369 Z"/>
            <path id="path26" fill="#f8192f" stroke="none" d="M 502.261658 696.193481 C 517.986511 693.745728 541.954346 698.885864 556.516907 706.010498 C 569.118469 712.175659 562.359314 723.213928 556.717407 732.899048 C 548.521545 746.968384 536.292053 757.865112 519.970032 761.90625 C 491.613678 768.017761 466.112579 741.36084 459.151917 716.359375 C 455.32312 702.606323 493.7388 697.193909 502.261658 696.193481 Z"/>
            <path id="path27" fill="#f8192f" stroke="none" d="M 567.608765 736.521973 C 569.284607 736.861816 570.411499 737.240356 571.925415 738.053101 C 591.255005 748.431946 622.321838 769.113525 629.65033 789.996643 C 626.001587 800.541748 619.519104 805.132813 610.484802 810.789734 C 600.644165 816.196838 592.588745 819.299805 581.459351 820.602539 C 576.217407 796.378418 568.152405 775.533875 557.240662 753.313721 C 560.605225 748.327942 564.328918 741.782227 567.608765 736.521973 Z"/>
            <path id="path28" fill="#f8192f" stroke="none" d="M 454.45462 736.120972 C 456.295593 736.99585 463.701233 750.881958 465.181946 753.496948 C 461.245911 763.210022 456.721222 771.665344 452.778809 782.210388 C 447.690155 795.819763 445.403137 807.46167 441.122955 820.597168 C 430.528595 819.806946 423.82309 817.272278 414.467102 812.419495 C 404.541779 806.208252 397.983154 801.270813 394.091095 790.036377 C 394.403107 788.978149 394.735504 787.92627 395.088257 786.880859 C 401.423859 768.640686 437.091492 744.393005 454.45462 736.120972 Z"/>
            <path id="path29" fill="#292728" stroke="none" d="M 457.429962 377.657166 C 478.069733 376.375793 481.876038 405.076416 462.150848 410.760071 C 454.389221 411.124634 448.3013 408.049561 445.642273 400.373779 C 444.012512 395.561707 444.446747 390.290771 446.839905 385.809021 C 449.384216 381.060242 452.569702 379.241821 457.429962 377.657166 Z"/>
            <path id="path30" fill="#292728" stroke="none" d="M 560.282471 377.650696 C 580.760315 376.275024 585.105896 405.021729 565.270264 410.796509 C 561.997925 410.838379 560.226685 410.905945 557.137695 409.517395 C 553.292847 407.789063 550.317444 404.570313 548.894714 400.602112 C 545.380005 390.820496 550.685242 381.109619 560.282471 377.650696 Z"/>
        </g>
    </g>
</svg>
