<?xml version="1.0" encoding="UTF-8"?>
<!-- Generated by Pixelmator Pro 3.7.1 -->
<svg width="1024" height="1024" viewBox="0 0 1024 1024" xmlns="http://www.w3.org/2000/svg">
    <path id="Shape" fill="#ffffff" fill-rule="evenodd" stroke="none" d="M 0 1024 L 1024 1024 L 1024 0 L 0 0 Z"/>
    <g id="Group">
        <path id="Path" fill="#fe2517" stroke="none" d="M 176.896408 528.390625 C 172.00148 529.531494 164.073257 530.21405 164.296265 522.896851 C 164.580841 513.565369 170.038849 498.55658 173.605606 489.865723 C 259.033356 281.738281 450.098206 88.224121 683.228821 68.020996 C 724.368103 64.455444 802.854492 69.367615 835.914124 96.58728 C 813.848083 109.681519 792.294617 119.135071 770.111572 134.588562 C 725.958679 165.346619 649.89447 235.763184 631.905396 286.024536 C 633.575989 292.867371 634.662659 297.596008 637.23645 304.186218 C 639.535461 310.071655 646.588928 322.004089 647.636108 327.245178 C 645.095703 331.200073 619.817749 335.36438 611.52478 340.075806 C 601.87793 345.55835 601.556274 345.81958 593.012024 353.185974 C 595.355408 372.654846 597.592834 389.352722 601.174377 408.686096 C 584.869507 412.40686 569.786743 422.551514 556.130676 431.926147 C 549.513367 457.645142 548.419312 473.534912 554.349121 499.798462 C 554.329468 497.357727 553.816895 489.220093 554.862915 488.8172 C 568.496826 483.567444 588.444885 482.839355 602.875854 477.41217 C 645.541687 461.36969 667.005127 442.982544 692.945923 407.710327 C 685.495728 406.442444 669.652893 404.410828 668.914917 395.439087 C 669.789612 393.38031 671.404846 390.905151 673.283691 389.711304 C 689.58374 379.344788 703.818787 369.647339 718.658813 357.020081 C 751.158997 329.356873 778.034912 295.698608 797.822815 257.878357 C 811.679688 230.756104 821.536072 201.92981 826.525818 171.950439 C 827.09259 168.599243 828.792847 157.425842 831.158386 155.301819 C 836.086487 155.85376 843.059937 164.857544 846.152344 168.912231 C 915.356567 259.709229 915.048523 397.637024 873.590088 499.452332 C 848.616455 560.745422 804.516541 622.99469 742.558044 648.426636 C 738.914917 649.922302 726.365234 648.361328 721.954529 647.968262 C 715.588562 648.454956 677.675964 638.247375 675.417603 639.547241 C 682.731079 642.456055 703.187988 648.547363 707.200745 652.687012 C 707.948547 658.79425 703.695618 662.632141 699.10376 666.240723 C 619.836243 728.520874 520.852234 768.450317 421.211548 782.14325 C 410.072662 783.673462 399.553406 783.149841 388.503174 782.052124 C 416.213104 794.176697 410.463165 796.340149 424.924988 821.263245 C 442.130493 850.912476 465.81665 878.935425 491.057648 902.032654 C 501.538605 911.569946 513.934326 919.208618 525.286377 927.574219 L 525.816162 929.085938 C 522.019043 936.079041 495.113525 944.108337 487.070709 946.472656 C 404.723053 970.672485 303.449951 950.465637 238.530853 893.695313 C 231.37265 887.435303 227.149216 882.609375 230.681503 872.685242 C 231.709015 868.819092 234.201462 863.582886 235.873337 859.765991 C 232.185837 863.844116 220.762253 881.118652 215.221725 878.180176 C 202.122589 871.235107 181.61145 848.527283 174.162491 836.279419 C 144.636459 799.646973 126.262939 740.075012 122.008667 693.749939 C 118.391373 655.484985 122.858788 616.88623 135.118881 580.458252 C 143.436447 555.01886 152.328156 537.234253 181.908371 534.646973 C 182.420914 532.803833 183.124435 531.083862 183.682526 529.127319 C 181.671829 527.651367 179.907532 528.28833 176.896408 528.390625 Z"/>
        <path id="path1" fill="#2c0000" stroke="none" d="M 217.275528 512.943176 C 250.758911 525.120789 281.481293 551.545776 303.799835 578.767822 L 303.863922 577.789551 L 304.92099 577.013367 C 308.327606 577.020813 309.208557 577.861023 312.208588 579.252014 C 382.390961 611.773193 475.058228 590.665649 535.735413 550.390015 C 540.706665 554.643066 551.856689 565.134033 558.593567 564.86908 C 561.470398 568.262207 565.974792 575.647034 568.714844 577.216675 C 574.564636 584.015137 595.078186 606.151367 602.591248 610.003967 C 602.102173 605.702881 597.724609 605.837158 598.128723 603.695923 C 601.626526 605.13855 609.427856 611.567383 613.412354 614.168335 C 625.727844 622.208618 661.130737 642.239258 675.417603 639.547241 C 682.731079 642.456055 703.187988 648.547363 707.200745 652.687012 C 707.948547 658.79425 703.695618 662.632141 699.10376 666.240723 C 619.836243 728.520874 520.852234 768.450317 421.211548 782.14325 C 410.072662 783.673462 399.553406 783.149841 388.503174 782.052124 C 416.213104 794.176697 410.463165 796.340149 424.924988 821.263245 C 442.130493 850.912476 465.81665 878.935425 491.057648 902.032654 C 501.538605 911.569946 513.934326 919.208618 525.286377 927.574219 L 525.816162 929.085938 C 522.019043 936.079041 495.113525 944.108337 487.070709 946.472656 C 404.723053 970.672485 303.449951 950.465637 238.530853 893.695313 C 231.37265 887.435303 227.149216 882.609375 230.681503 872.685242 C 231.709015 868.819092 234.201462 863.582886 235.873337 859.765991 C 232.185837 863.844116 220.762253 881.118652 215.221725 878.180176 C 202.122589 871.235107 181.61145 848.527283 174.162491 836.279419 C 144.636459 799.646973 126.262939 740.075012 122.008667 693.749939 C 118.391373 655.484985 122.858788 616.88623 135.118881 580.458252 C 143.436447 555.01886 152.328156 537.234253 181.908371 534.646973 C 182.420914 532.803833 183.124435 531.083862 183.682526 529.127319 C 181.671829 527.651367 179.907532 528.28833 176.896408 528.390625 C 173.316055 527.711731 168.587479 528.564331 167.574753 524.427124 C 170.312347 521.40863 177.070145 518.484924 181.368744 515.662354 C 189.324081 511.617493 207.442612 514.241821 215.923996 516.973206 C 217.508423 517.472229 219.074356 518.030334 220.618103 518.645081 C 219.070663 516.647949 218.431259 515.202759 217.275528 512.943176 Z"/>
        <linearGradient id="linearGradient1" x1="493.12935" y1="551.549966" x2="492.324047" y2="761.871138" gradientUnits="userSpaceOnUse">
            <stop offset="1e-05" stop-color="#b40000" stop-opacity="1"/>
            <stop offset="1" stop-color="#e8170f" stop-opacity="1"/>
        </linearGradient>
        <path id="path2" fill="url(#linearGradient1)" stroke="none" d="M 535.735413 550.390015 C 540.706665 554.643066 551.856689 565.134033 558.593567 564.86908 C 561.470398 568.262207 565.974792 575.647034 568.714844 577.216675 C 574.564636 584.015137 595.078186 606.151367 602.591248 610.003967 C 626.80719 630.564392 658.6297 644.395386 688.577148 654.081726 C 686.772156 655.11792 684.345032 656.749084 682.381165 657.069458 C 682.016479 657.10144 669.270935 662.7146 668.736206 663.180359 C 657.5849 672.909912 645.72644 681.866882 632.839294 689.217285 C 575.452942 722.307617 512.787231 745.242188 447.602081 757.011963 C 432.771851 759.670654 414.654633 762.733582 399.62851 762.441589 C 383.55896 710.592102 363.509827 663.065796 334.10083 617.239746 C 330.587036 611.765808 322.00708 598.4375 317.057892 594.563904 C 316.273132 594.138916 315.369995 592.995605 314.709595 592.279663 C 311.26236 587.770386 307.399902 583.187256 303.799835 578.767822 L 303.863922 577.789551 L 304.92099 577.013367 C 308.327606 577.020813 309.208557 577.861023 312.208588 579.252014 C 382.390961 611.773193 475.058228 590.665649 535.735413 550.390015 Z"/>
        <linearGradient id="linearGradient2" x1="293.138545" y1="773.624693" x2="118.511386" y2="637.046176" gradientUnits="userSpaceOnUse">
            <stop offset="1e-05" stop-color="#e20100" stop-opacity="1"/>
            <stop offset="1" stop-color="#ff3624" stop-opacity="1"/>
        </linearGradient>
        <path id="path3" fill="url(#linearGradient2)" stroke="none" d="M 157.50029 560.869873 C 157.846466 560.786133 158.191437 560.70105 158.537643 560.616089 C 164.954163 557.869873 172.43515 553.042664 179.311249 551.734192 C 193.798859 548.975708 208.261902 554.625854 220.705551 561.487122 C 244.843887 574.794495 263.437927 595.549561 280.19873 617.011841 C 282.306763 619.710083 291.537262 631.911011 292.272797 634.739746 C 298.614166 642.099976 321.324493 676.969482 324.143463 685.216797 C 323.257538 688.648071 322.762299 691.945068 320.671478 694.706055 L 318.436584 695.912231 C 321.459991 702.241211 327.006714 709.884888 329.151672 715.510376 C 334.683624 726.085083 342.821259 743.625732 346.211884 755.06781 C 342.205261 758.23291 322.364349 762.478516 316.371643 764.919189 C 277.676727 780.680847 228.684311 805.034729 211.379013 845.417542 L 208.466431 841.715271 C 205.965347 838.63269 203.230225 835.661011 201.684006 832.033813 C 200.291779 830.372986 198.460968 827.37793 197.206741 825.474426 C 192.214478 822.139221 185.624252 808.260193 182.839813 802.419067 C 164.356644 763.646484 152.091583 718.257874 151.463226 675.197754 L 151.64682 657.878906 C 152.572098 644.77478 154.324066 631.742188 156.894119 618.859924 C 159.326187 606.426147 166.276154 583.426208 165.093399 572.255249 C 162.623138 570.244568 160.781235 564.59314 157.50029 560.869873 Z"/>
        <path id="path4" fill="#b90000" stroke="none" d="M 301.195282 683.742065 C 311.932617 693.010742 322.77832 711.34729 329.151672 715.510376 C 334.683624 726.085083 342.821259 743.625732 346.211884 755.06781 C 342.205261 758.23291 322.364349 762.478516 316.371643 764.919189 C 277.676727 780.680847 228.684311 805.034729 211.379013 845.417542 L 208.466431 841.715271 C 211.104233 804.517273 255.478882 778.452026 284.679718 762.361511 C 289.519165 759.335571 317.718292 747.822083 318.296112 743.724304 C 320.432495 728.570129 304.885254 698.505737 301.195282 683.742065 Z"/>
        <path id="path5" fill="#fea39e" stroke="none" d="M 157.50029 560.869873 C 157.846466 560.786133 158.191437 560.70105 158.537643 560.616089 C 164.954163 557.869873 172.43515 553.042664 179.311249 551.734192 C 193.798859 548.975708 208.261902 554.625854 220.705551 561.487122 C 244.843887 574.794495 263.437927 595.549561 280.19873 617.011841 C 282.306763 619.710083 291.537262 631.911011 292.272797 634.739746 C 284.415985 630.46582 279.349823 630.064209 272.661072 621.898193 C 271.2836 620.216431 269.566132 619.965027 267.448273 619.435303 L 265.71109 619.893555 C 265.325409 624.070251 279.935089 636.86261 283.719879 642.340271 L 283.15567 643.826111 C 260.977539 618.995422 237.184189 592.596313 206.75267 577.762512 C 197.658905 573.32959 174.283218 568.796875 165.093399 572.255249 C 162.623138 570.244568 160.781235 564.59314 157.50029 560.869873 Z"/>
        <path id="path6" fill="#fe8c84" stroke="none" d="M 283.15567 643.826111 L 283.719879 642.340271 C 279.935089 636.86261 265.325409 624.070251 265.71109 619.893555 L 267.448273 619.435303 C 269.566132 619.965027 271.2836 620.216431 272.661072 621.898193 C 279.349823 630.064209 284.415985 630.46582 292.272797 634.739746 C 298.614166 642.099976 321.324493 676.969482 324.143463 685.216797 C 323.257538 688.648071 322.762299 691.945068 320.671478 694.706055 L 318.436584 695.912231 C 307.176849 672.811279 298.145996 663.967651 283.15567 643.826111 Z"/>
        <path id="path7" fill="#d50301" stroke="none" d="M 183.841446 795.724121 C 188.667404 799.926636 195.968521 808.001526 196.258041 814.679199 C 194.619431 814.781433 195.019852 814.7901 193.451447 814.551025 C 195.798492 821.082153 200.888107 825.641968 201.684006 832.033813 C 200.291779 830.372986 198.460968 827.37793 197.206741 825.474426 C 193.501938 814.69397 187.257935 808.632263 183.841446 795.724121 Z"/>
        <path id="path8" fill="#580000" stroke="none" d="M 230.681503 872.685242 L 233.798538 869.202271 C 234.023987 869.244141 237.541534 869.83551 237.812546 869.562012 C 242.213455 865.109375 245.633621 859.423462 249.323593 854.373352 C 258.673615 841.454041 269.996124 830.083496 282.874725 820.676758 C 309.570801 801.061401 350.028717 780.566284 384.383209 782.202393 C 386.33844 782.2948 386.37912 782.371155 388.503174 782.052124 C 416.213104 794.176697 410.463165 796.340149 424.924988 821.263245 C 442.130493 850.912476 465.81665 878.935425 491.057648 902.032654 C 501.538605 911.569946 513.934326 919.208618 525.286377 927.574219 L 525.816162 929.085938 C 522.019043 936.079041 495.113525 944.108337 487.070709 946.472656 C 404.723053 970.672485 303.449951 950.465637 238.530853 893.695313 C 231.37265 887.435303 227.149216 882.609375 230.681503 872.685242 Z"/>
        <path id="path9" fill="#fe2517" stroke="none" d="M 241.429886 878.053284 C 260.690491 836.464233 357.061279 764.362305 399.509033 799.324158 C 405.81958 806.324646 418.374176 829.472412 424.540558 839.057739 C 441.926025 866.090088 461.254395 886.734314 484.817322 908.334534 C 491.025604 914.026611 498.207184 921.1651 505.178131 925.723694 L 505.706635 927.292114 C 504.829437 927.723267 503.753876 928.326965 502.845856 928.582031 C 500.364471 929.899048 497.03183 931.334473 494.439606 932.177124 C 422.760254 955.508423 341.690216 943.151062 276.163727 907.416687 C 270.459351 904.305725 241.719406 884.250488 240.098053 879.871765 L 241.429886 878.053284 Z"/>
        <path id="path10" fill="#fe8c84" stroke="none" d="M 399.509033 799.324158 C 405.81958 806.324646 418.374176 829.472412 424.540558 839.057739 C 441.926025 866.090088 461.254395 886.734314 484.817322 908.334534 C 491.025604 914.026611 498.207184 921.1651 505.178131 925.723694 L 505.706635 927.292114 C 504.829437 927.723267 503.753876 928.326965 502.845856 928.582031 L 495.91806 928.601746 L 497.836304 926.481384 C 495.634644 925.986145 491.903992 924.703552 489.617371 924.001282 C 455.296204 917.264404 415.810272 871.094666 398.726654 842.723083 C 394.037537 834.935242 394.734833 825.187317 391.200073 819.550659 C 393.672821 812.2052 399.51767 815.869385 400.19281 805.209717 L 399.927948 804.267151 L 399.509033 799.324158 Z"/>
        <path id="path11" fill="#d50301" stroke="none" d="M 399.509033 799.324158 C 405.81958 806.324646 418.374176 829.472412 424.540558 839.057739 C 441.926025 866.090088 461.254395 886.734314 484.817322 908.334534 C 491.025604 914.026611 498.207184 921.1651 505.178131 925.723694 L 505.706635 927.292114 C 504.829437 927.723267 503.753876 928.326965 502.845856 928.582031 L 495.91806 928.601746 L 497.836304 926.481384 C 495.634644 925.986145 491.903992 924.703552 489.617371 924.001282 C 486.152832 921.011108 483.858765 920.290405 486.087555 915.957275 C 484.866577 914.090698 480.713379 910.235657 478.827087 908.582153 C 444.706696 878.664429 422.288391 844.270508 400.19281 805.209717 L 399.927948 804.267151 L 399.509033 799.324158 Z"/>
        <path id="path12" fill="#fed7d5" stroke="none" d="M 489.617371 924.001282 C 486.152832 921.011108 483.858765 920.290405 486.087555 915.957275 C 488.534363 917.912476 497.16983 924.299438 497.836304 926.481384 C 495.634644 925.986145 491.903992 924.703552 489.617371 924.001282 Z"/>
        <path id="path13" fill="#b90000" stroke="none" d="M 241.429886 878.053284 C 242.558395 879.917358 248.340454 883.18103 250.768753 884.971191 C 322.228821 937.658569 411.233185 952.080933 495.91806 928.601746 L 502.845856 928.582031 C 500.364471 929.899048 497.03183 931.334473 494.439606 932.177124 C 422.760254 955.508423 341.690216 943.151062 276.163727 907.416687 C 270.459351 904.305725 241.719406 884.250488 240.098053 879.871765 L 241.429886 878.053284 Z"/>
        <path id="path14" fill="#fefdfe" stroke="none" d="M 341.286102 805.617493 C 362.514343 795.721619 379.296051 788.437744 399.927948 804.267151 L 400.19281 805.209717 C 399.51767 815.869385 393.672821 812.2052 391.200073 819.550659 C 389.599701 824.726563 389.212799 828.173828 388.47113 833.578857 C 374.562531 805.118469 375.845123 798.122925 341.286102 805.617493 Z"/>
        <path id="path15" fill="#b90000" stroke="none" d="M 326.983307 813.174866 C 326.390686 825.70105 320.022217 826.41449 330.917236 841.301331 C 367.719727 891.589783 419.713379 913.363831 479.10675 924.102356 C 463.098785 929.619385 425.840363 931.254395 408.55719 929.892944 C 366.166107 927.357361 324.660889 916.676758 286.310913 898.435059 C 280.222107 895.500305 253.597565 881.264038 251.793869 876.132568 C 254.197571 872.028564 259.510193 866.810791 262.676544 862.950806 C 281.69809 839.769836 301.144745 827.175842 326.983307 813.174866 Z"/>
        <path id="path16" fill="#fe2517" stroke="none" d="M 155.49205 782.892334 C 156.582382 776.299683 150.922363 765.636353 148.378174 759.172974 C 144.226181 748.861938 140.831879 738.262634 138.224869 727.45752 C 127.837479 682.885742 131.44368 636.844116 141.736221 592.278442 C 156.895355 526.639893 205.065964 538.201416 246.792953 575.085205 C 276.66156 601.486816 301.133698 635.856018 320.374603 671.967346 C 322.046478 675.780579 324.791443 681.142456 327.169373 684.519409 L 326.151611 686.799927 L 324.143463 685.216797 C 321.324493 676.969482 298.614166 642.099976 292.272797 634.739746 C 291.537262 631.911011 282.306763 619.710083 280.19873 617.011841 C 263.437927 595.549561 244.843887 574.794495 220.705551 561.487122 C 208.261902 554.625854 193.798859 548.975708 179.311249 551.734192 C 172.43515 553.042664 164.954163 557.869873 158.537643 560.616089 C 158.191437 560.70105 157.846466 560.786133 157.50029 560.869873 C 160.781235 564.59314 162.623138 570.244568 165.093399 572.255249 C 166.276154 583.426208 159.326187 606.426147 156.894119 618.859924 C 154.324066 631.742188 152.572098 644.77478 151.64682 657.878906 L 151.463226 675.197754 C 152.091583 718.257874 164.356644 763.646484 182.839813 802.419067 C 185.624252 808.260193 192.214478 822.139221 197.206741 825.474426 C 198.460968 827.37793 200.291779 830.372986 201.684006 832.033813 C 203.230225 835.661011 205.965347 838.63269 208.466431 841.715271 L 211.379013 845.417542 C 210.872635 848.049255 210.586792 852.990967 209.371964 854.624634 C 202.822388 847.01062 196.808792 840.111145 190.907272 831.950073 C 187.135956 828.924133 185.584808 827.434631 181.066895 825.662842 C 176.476273 821.061157 158.975037 789.634094 155.49205 782.892334 Z"/>
        <linearGradient id="linearGradient3" x1="147.202338" y1="789.019665" x2="204.647866" y2="731.240104" gradientUnits="userSpaceOnUse">
            <stop offset="1e-05" stop-color="#ff7267" stop-opacity="1"/>
            <stop offset="1" stop-color="#ffbbba" stop-opacity="1"/>
        </linearGradient>
        <path id="path17" fill="url(#linearGradient3)" stroke="none" d="M 137.274963 675.672119 C 142.49147 675.109009 146.998291 676.959595 151.463226 675.197754 C 152.091583 718.257874 164.356644 763.646484 182.839813 802.419067 C 185.624252 808.260193 192.214478 822.139221 197.206741 825.474426 C 198.460968 827.37793 200.291779 830.372986 201.684006 832.033813 C 203.230225 835.661011 205.965347 838.63269 208.466431 841.715271 L 211.379013 845.417542 C 210.872635 848.049255 210.586792 852.990967 209.371964 854.624634 C 202.822388 847.01062 196.808792 840.111145 190.907272 831.950073 C 185.727722 822.811951 177.309158 813.307922 172.039688 803.458923 C 149.597931 761.513855 138.813782 722.658691 137.274963 675.672119 Z"/>
        <path id="path18" fill="#fefdfe" stroke="none" d="M 157.50029 560.869873 C 160.781235 564.59314 162.623138 570.244568 165.093399 572.255249 C 166.276154 583.426208 159.326187 606.426147 156.894119 618.859924 C 154.324066 631.742188 152.572098 644.77478 151.64682 657.878906 C 147.213928 657.473511 143.214691 654.478394 137.536163 653.779907 C 137.521393 623.891602 145.736694 588.292847 157.50029 560.869873 Z"/>
        <path id="path19" fill="#fed7d5" stroke="none" d="M 137.536163 653.779907 C 143.214691 654.478394 147.213928 657.473511 151.64682 657.878906 L 151.463226 675.197754 C 146.998291 676.959595 142.49147 675.109009 137.274963 675.672119 C 136.732864 668.526245 137.244171 660.968872 137.536163 653.779907 Z"/>
        <path id="path20" fill="#580000" stroke="none" d="M 174.162491 836.279419 C 144.636459 799.646973 126.262939 740.075012 122.008667 693.749939 C 118.391373 655.484985 122.858788 616.88623 135.118881 580.458252 C 143.436447 555.01886 152.328156 537.234253 181.908371 534.646973 C 185.085831 537.453491 206.732895 540.550903 216.302246 546.001526 C 266.603119 574.647827 302.070068 622.302246 326.708557 673.628174 C 329.187439 677.011353 331.182098 680.723511 332.634705 684.65741 L 331.525818 685.234009 C 332.626038 687.486206 334.168579 689.908447 334.049103 692.314636 L 333.136108 692.159424 C 331.392792 688.227905 330.816162 686.045959 327.169373 684.519409 C 324.791443 681.142456 322.046478 675.780579 320.374603 671.967346 C 301.133698 635.856018 276.66156 601.486816 246.792953 575.085205 C 205.065964 538.201416 156.895355 526.639893 141.736221 592.278442 C 131.44368 636.844116 127.837479 682.885742 138.224869 727.45752 C 140.831879 738.262634 144.226181 748.861938 148.378174 759.172974 C 150.922363 765.636353 156.582382 776.299683 155.49205 782.892334 C 141.447906 763.80542 126.981232 690.595886 131.002609 667.863403 L 131.200974 666.800171 C 132.816208 657.770447 128.998077 635.910217 133.571457 626.700684 C 124.61692 612.128052 134.475754 607.548462 132.981293 596.731079 C 129.063354 599.908569 124.995171 631.067078 124.281799 637.939331 C 119.242729 683.477112 125.215691 729.560669 141.698013 772.307861 C 148.412689 789.951965 155.873978 805.691406 166.453583 821.290405 C 168.822815 824.781982 174.280777 832.453979 174.162491 836.279419 Z"/>
        <path id="path21" fill="#7d0100" stroke="none" d="M 320.374603 671.967346 L 321.448944 671.665527 L 321.083038 670.710632 C 320.101105 668.113525 319.412354 667.073669 320.182373 664.466614 L 321.511749 666.230957 L 319.950775 666.752075 L 321.992249 667.274536 C 323.281006 670.780884 323.575409 671.562012 326.708557 673.628174 C 329.187439 677.011353 331.182098 680.723511 332.634705 684.65741 L 331.525818 685.234009 C 332.626038 687.486206 334.168579 689.908447 334.049103 692.314636 L 333.136108 692.159424 C 331.392792 688.227905 330.816162 686.045959 327.169373 684.519409 C 324.791443 681.142456 322.046478 675.780579 320.374603 671.967346 Z"/>
        <path id="path22" fill="#b90000" stroke="none" d="M 314.709595 592.279663 C 315.369995 592.995605 316.273132 594.138916 317.057892 594.563904 C 322.00708 598.4375 330.587036 611.765808 334.10083 617.239746 C 363.509827 663.065796 383.55896 710.592102 399.62851 762.441589 C 414.654633 762.733582 432.771851 759.670654 447.602081 757.011963 C 512.787231 745.242188 575.452942 722.307617 632.839294 689.217285 C 645.72644 681.866882 657.5849 672.909912 668.736206 663.180359 C 669.270935 662.7146 682.016479 657.10144 682.381165 657.069458 C 684.345032 656.749084 686.772156 655.11792 688.577148 654.081726 L 690.085144 654.075562 C 688.351685 661.10437 647.130981 687.348267 638.071716 692.699036 C 575.185547 729.841553 503.708313 755.894409 431.322998 766.231323 C 420.548737 767.768921 408.976105 769.884399 398.286835 768.404663 C 395.439606 767.951294 394.668274 765.688049 393.517609 763.366821 C 393.35614 760.823914 387.133118 741.876221 386.067413 738.889709 C 368.170685 688.746582 343.310364 637.932007 311.20816 595.463379 C 311.846375 594.730225 313.879181 593.018921 314.709595 592.279663 Z"/>
        <path id="path23" fill="#fe2517" stroke="none" d="M 317.057892 594.563904 C 322.00708 598.4375 330.587036 611.765808 334.10083 617.239746 C 363.509827 663.065796 383.55896 710.592102 399.62851 762.441589 C 414.654633 762.733582 432.771851 759.670654 447.602081 757.011963 C 512.787231 745.242188 575.452942 722.307617 632.839294 689.217285 C 645.72644 681.866882 657.5849 672.909912 668.736206 663.180359 C 669.270935 662.7146 682.016479 657.10144 682.381165 657.069458 C 672.664001 665.708496 658.887207 674.305786 647.733521 681.392578 C 585.429993 720.553162 515.985657 746.978149 443.414276 759.139709 C 435.069672 760.540527 403.72879 767.281006 397.752167 761.074036 L 396.225647 756.673096 C 385.755707 717.862427 365.118896 673.682373 345.268158 638.274536 C 337.716888 624.805786 325.748779 607.761597 317.057892 594.563904 Z"/>
        <path id="path24" fill="#d50301" stroke="none" d="M 346.211884 755.06781 C 349.44104 756.317078 351.934692 757.565125 355.378326 757.687134 L 357.802948 758.720825 C 355.880951 761.860107 347.437775 760.680969 344.195007 764.317993 C 299.512329 774.254517 231.260529 812.895203 211.737488 855.921997 L 209.656601 855.775391 L 209.371964 854.624634 C 210.586792 852.990967 210.872635 848.049255 211.379013 845.417542 C 228.684311 805.034729 277.676727 780.680847 316.371643 764.919189 C 322.364349 762.478516 342.205261 758.23291 346.211884 755.06781 Z"/>
        <path id="path25" fill="#b90000" stroke="none" d="M 344.195007 764.317993 C 347.865265 763.949585 351.376587 763.284302 354.899017 764.13562 C 304.061005 777.640137 244.020844 809.19165 216.791336 856.034058 C 215.340012 858.538879 213.915756 861.059692 212.519852 863.596436 L 203.9189 855.38855 L 209.656601 855.775391 L 211.737488 855.921997 C 231.260529 812.895203 299.512329 774.254517 344.195007 764.317993 Z"/>
        <path id="path26" fill="#fe2517" stroke="none" d="M 324.143463 685.216797 L 326.151611 686.799927 C 334.227753 703.02478 341.468445 719.652466 347.843079 736.617798 C 350.028717 742.308716 353.22464 752.797119 355.378326 757.687134 C 351.934692 757.565125 349.44104 756.317078 346.211884 755.06781 C 342.821259 743.625732 334.683624 726.085083 329.151672 715.510376 C 327.006714 709.884888 321.459991 702.241211 318.436584 695.912231 L 320.671478 694.706055 C 322.762299 691.945068 323.257538 688.648071 324.143463 685.216797 Z"/>
        <path id="path27" fill="#b90000" stroke="none" d="M 217.275528 512.943176 C 250.758911 525.120789 281.481293 551.545776 303.799835 578.767822 C 307.399902 583.187256 311.26236 587.770386 314.709595 592.279663 C 313.879181 593.018921 311.846375 594.730225 311.20816 595.463379 C 288.612366 567.274048 254.750732 531.633301 220.618103 518.645081 C 219.070663 516.647949 218.431259 515.202759 217.275528 512.943176 Z"/>
        <linearGradient id="linearGradient4" x1="352.585166" y1="721.347854" x2="339.333428" y2="730.519109" gradientUnits="userSpaceOnUse">
            <stop offset="1e-05" stop-color="#870000" stop-opacity="1"/>
            <stop offset="1" stop-color="#b80100" stop-opacity="1"/>
        </linearGradient>
        <path id="path28" fill="url(#linearGradient4)" stroke="none" d="M 327.169373 684.519409 C 330.816162 686.045959 331.392792 688.227905 333.136108 692.159424 L 334.049103 692.314636 C 334.168579 689.908447 332.626038 687.486206 331.525818 685.234009 L 332.634705 684.65741 C 340.056549 699.365662 359.697876 747.283691 362.567291 762.328186 C 360.981659 764.099976 357.254761 764.251465 354.899017 764.13562 C 351.376587 763.284302 347.865265 763.949585 344.195007 764.317993 C 347.437775 760.680969 355.880951 761.860107 357.802948 758.720825 L 355.378326 757.687134 C 353.22464 752.797119 350.028717 742.308716 347.843079 736.617798 C 341.468445 719.652466 334.227753 703.02478 326.151611 686.799927 L 327.169373 684.519409 Z"/>
        <path id="path29" fill="#d50301" stroke="none" d="M 181.066895 825.662842 C 185.584808 827.434631 187.135956 828.924133 190.907272 831.950073 C 196.808792 840.111145 202.822388 847.01062 209.371964 854.624634 L 209.656601 855.775391 L 203.9189 855.38855 C 197.475311 849.227051 185.621765 833.29303 181.066895 825.662842 Z"/>
        <linearGradient id="linearGradient5" x1="597.081161" y1="680.978649" x2="462.383193" y2="116.119384" gradientUnits="userSpaceOnUse">
            <stop offset="1e-05" stop-color="#2c0000" stop-opacity="1"/>
            <stop offset="1" stop-color="#620000" stop-opacity="1"/>
        </linearGradient>
        <path id="path30" fill="url(#linearGradient5)" stroke="none" d="M 176.896408 528.390625 C 172.00148 529.531494 164.073257 530.21405 164.296265 522.896851 C 164.580841 513.565369 170.038849 498.55658 173.605606 489.865723 C 259.033356 281.738281 450.098206 88.224121 683.228821 68.020996 C 724.368103 64.455444 802.854492 69.367615 835.914124 96.58728 C 813.848083 109.681519 792.294617 119.135071 770.111572 134.588562 C 725.958679 165.346619 649.89447 235.763184 631.905396 286.024536 C 633.575989 292.867371 634.662659 297.596008 637.23645 304.186218 C 639.535461 310.071655 646.588928 322.004089 647.636108 327.245178 C 645.095703 331.200073 619.817749 335.36438 611.52478 340.075806 C 601.87793 345.55835 601.556274 345.81958 593.012024 353.185974 C 595.355408 372.654846 597.592834 389.352722 601.174377 408.686096 C 584.869507 412.40686 569.786743 422.551514 556.130676 431.926147 C 549.513367 457.645142 548.419312 473.534912 554.349121 499.798462 C 554.329468 497.357727 553.816895 489.220093 554.862915 488.8172 C 568.496826 483.567444 588.444885 482.839355 602.875854 477.41217 C 645.541687 461.36969 667.005127 442.982544 692.945923 407.710327 C 685.495728 406.442444 669.652893 404.410828 668.914917 395.439087 C 669.789612 393.38031 671.404846 390.905151 673.283691 389.711304 C 689.58374 379.344788 703.818787 369.647339 718.658813 357.020081 C 751.158997 329.356873 778.034912 295.698608 797.822815 257.878357 C 811.679688 230.756104 821.536072 201.92981 826.525818 171.950439 C 827.09259 168.599243 828.792847 157.425842 831.158386 155.301819 C 836.086487 155.85376 843.059937 164.857544 846.152344 168.912231 C 915.356567 259.709229 915.048523 397.637024 873.590088 499.452332 C 848.616455 560.745422 804.516541 622.99469 742.558044 648.426636 C 738.914917 649.922302 726.365234 648.361328 721.954529 647.968262 C 715.588562 648.454956 677.675964 638.247375 675.417603 639.547241 C 661.130737 642.239258 625.727844 622.208618 613.412354 614.168335 C 609.427856 611.567383 601.626526 605.13855 598.128723 603.695923 C 597.724609 605.837158 602.102173 605.702881 602.591248 610.003967 C 595.078186 606.151367 574.564636 584.015137 568.714844 577.216675 C 573.219177 577.33252 577.41803 586.596252 582.485474 588.149902 C 547.43988 555.338013 525.046143 500.301147 532.033081 452.641846 C 534.036377 438.974731 536.81958 422.253357 548.079285 413.319763 C 553.880981 409.679077 580.573364 401.266663 588.47937 400.082642 C 582.721985 382.806885 576.112061 361.896484 574.385925 343.755859 C 575.377747 341.901611 577.77655 337.600586 579.089905 336.087585 C 589.432983 324.172485 618.510559 323.50592 633.561279 322.121155 C 626.086426 305.787842 621.025085 294.456665 615.496887 277.424805 C 620.94751 265.530701 628.325073 256.987671 633.213745 246.739502 C 641.331787 239.456848 657.301575 216.575256 666.725464 206.311035 C 708.583069 160.72522 756.47406 119.378967 813.416809 94.145386 L 809.388062 93.622986 C 807.170349 91.774902 806.246277 92.012695 803.18219 91.787231 C 782.13269 85.835205 757.623535 80.606384 735.723877 79.164917 C 652.919189 73.715515 567.343567 99.334717 495.565704 138.951294 C 383.589783 200.754456 293.029266 295.996765 229.807922 406.496765 C 215.528534 431.454285 197.30777 464.533569 188.911346 491.936768 L 182.769577 492.205322 L 175.06311 514.612549 L 174.51239 516.118164 C 176.525558 517.135864 178.83197 516.310425 181.368744 515.662354 C 177.070145 518.484924 170.312347 521.40863 167.574753 524.427124 C 168.587479 528.564331 173.316055 527.711731 176.896408 528.390625 Z"/>
        <path id="path31" fill="#fe2517" stroke="none" d="M 182.769577 492.205322 C 187.823456 479.601501 193.245712 467.147949 199.030136 454.860718 C 282.673889 277.5271 451.374542 114.307861 649.855042 80.102478 C 695.518433 72.233459 771.026978 72.525391 813.786499 92.833252 L 813.416809 94.145386 L 809.388062 93.622986 C 807.170349 91.774902 806.246277 92.012695 803.18219 91.787231 C 782.13269 85.835205 757.623535 80.606384 735.723877 79.164917 C 652.919189 73.715515 567.343567 99.334717 495.565704 138.951294 C 383.589783 200.754456 293.029266 295.996765 229.807922 406.496765 C 215.528534 431.454285 197.30777 464.533569 188.911346 491.936768 L 182.769577 492.205322 Z"/>
        <path id="path32" fill="#fe2517" stroke="none" d="M 696.597778 384.302612 C 700.125122 382.071289 703.553894 379.689758 706.876709 377.162781 C 772.456177 327.48175 824.14801 254.452026 835.667603 171.724915 C 840.866821 179.170227 845.684204 186.09436 850.452209 193.816833 C 855.134033 197.585693 861.06012 208.789917 863.462708 214.484497 C 911.611084 328.219727 893.290527 476.332886 817.112976 573.867981 C 800.989197 594.513428 780.119507 614.940735 756.963196 627.502747 C 752.940491 630.536011 747.886658 632.756226 743.318237 634.976318 C 735.461487 633.373413 724.480225 633.02356 715.122803 631.182861 C 677.970398 624.050537 643.463196 606.928711 615.30719 581.656982 C 596.03302 564.219849 569.321045 533.184509 568.007629 506.170654 C 566.537781 501.637878 565.605103 499.207092 565.152954 494.445251 C 575.305115 491.418152 586.956543 492.047668 600.204773 487.291931 C 651.858337 468.748413 682.634949 445.996155 706.95929 397.465759 C 695.253601 397.880981 691.140991 397.373413 680.141296 394.671509 C 686.37915 391.295715 690.777588 388.278381 696.597778 384.302612 Z"/>
        <path id="path33" fill="#fefdfe" stroke="none" d="M 694.872864 388.916626 C 697.366516 387.576111 701.54071 384.868103 703.886536 383.218384 C 773.377747 334.319641 821.277283 263.309265 837.811401 180.571106 C 839.634766 195.328552 839.080444 210.283142 836.160461 224.863159 C 826.920105 272.552124 797.199402 322.029907 762.536926 355.800354 C 754.092468 364.026733 737.802368 376.013306 727.763611 382.825378 C 720.107666 386.261475 712.678467 389.840637 704.461914 391.720764 L 687.039551 394.251343 L 694.872864 388.916626 Z"/>
        <path id="path34" fill="#fefdfe" stroke="none" d="M 696.597778 384.302612 L 694.872864 388.916626 L 687.039551 394.251343 L 704.461914 391.720764 C 709.206482 395.710144 710.064026 394.671509 715.959351 396.865784 C 721.016968 394.173706 723.976318 390.042664 727.440857 385.620911 C 721.679749 407.057251 714.804932 421.535034 699.836792 438.136963 C 669.725525 471.530273 619.065002 501.196838 572.674683 497.903503 L 571.289795 497.023865 C 572.76709 495.94342 572.764587 495.879333 574.466064 495.255981 C 571.276245 495.099365 568.316895 494.779114 565.152954 494.445251 C 575.305115 491.418152 586.956543 492.047668 600.204773 487.291931 C 651.858337 468.748413 682.634949 445.996155 706.95929 397.465759 C 695.253601 397.880981 691.140991 397.373413 680.141296 394.671509 C 686.37915 391.295715 690.777588 388.278381 696.597778 384.302612 Z"/>
        <path id="path35" fill="#fe2517" stroke="none" d="M 696.597778 384.302612 L 694.872864 388.916626 L 687.039551 394.251343 L 704.461914 391.720764 C 709.206482 395.710144 710.064026 394.671509 715.959351 396.865784 L 715.088379 397.68634 C 706.981445 405.453125 697.672058 422.440552 688.522888 433.297424 C 662.319702 464.394287 617.404175 491.818481 576.423767 495.352051 C 575.901367 495.396362 575.011841 495.303955 574.466064 495.255981 C 571.276245 495.099365 568.316895 494.779114 565.152954 494.445251 C 575.305115 491.418152 586.956543 492.047668 600.204773 487.291931 C 651.858337 468.748413 682.634949 445.996155 706.95929 397.465759 C 695.253601 397.880981 691.140991 397.373413 680.141296 394.671509 C 686.37915 391.295715 690.777588 388.278381 696.597778 384.302612 Z"/>
        <path id="path36" fill="#b90000" stroke="none" d="M 850.452209 193.816833 C 855.134033 197.585693 861.06012 208.789917 863.462708 214.484497 C 911.611084 328.219727 893.290527 476.332886 817.112976 573.867981 C 800.989197 594.513428 780.119507 614.940735 756.963196 627.502747 L 752.791504 625.25061 C 802.855774 596.432983 837.035156 546.056946 859.027344 493.551941 C 890.173401 419.200317 894.67041 323.990112 872.062378 246.456055 C 865.865112 225.225464 858.386658 213.094666 850.452209 193.816833 Z"/>
        <path id="path37" fill="#b90000" stroke="none" d="M 568.007629 506.170654 C 588.730713 556.682129 623.469482 593.469849 674.069702 614.483643 C 693.664246 622.621338 733.686096 636.361206 752.791504 625.25061 L 756.963196 627.502747 C 752.940491 630.536011 747.886658 632.756226 743.318237 634.976318 C 735.461487 633.373413 724.480225 633.02356 715.122803 631.182861 C 677.970398 624.050537 643.463196 606.928711 615.30719 581.656982 C 596.03302 564.219849 569.321045 533.184509 568.007629 506.170654 Z"/>
        <path id="path38" fill="#b90000" stroke="none" d="M 856.021057 243.505371 L 857.585815 241.244507 C 879.442322 313.017517 875.906372 374.993164 854.71521 447.006409 C 846.509705 474.865479 837.084534 498.980347 823.44574 524.667358 C 805.926025 558.341736 782.634155 588.679626 754.633362 614.303833 C 750.816467 617.784363 743.400818 624.946289 738.684509 626.428406 C 731.067993 625.408264 723.202637 622.920776 715.763489 620.982666 C 663.901672 607.464722 635.081604 586.70343 600.223267 547.98999 C 676.504272 541.573608 741.128906 508.120972 790.732361 449.40033 C 838.489075 393.520752 862.107483 320.962952 856.403076 247.67218 C 856.279785 246.282349 856.156616 244.893921 856.021057 243.505371 Z"/>
        <path id="path39" fill="#d50301" stroke="none" d="M 856.021057 243.505371 C 855.368042 239.766113 852.891602 230.64032 854.148315 227.556458 L 853.618652 229.812378 L 855.28186 230.178284 C 856.107239 233.854736 856.871277 237.543396 857.585815 241.244507 L 856.021057 243.505371 Z"/>
        <path id="path40" fill="#fefdfe" stroke="none" d="M 188.911346 491.936768 C 197.30777 464.533569 215.528534 431.454285 229.807922 406.496765 C 293.029266 295.996765 383.589783 200.754456 495.565704 138.951294 C 567.343567 99.334717 652.919189 73.715515 735.723877 79.164917 C 757.623535 80.606384 782.13269 85.835205 803.18219 91.787231 C 797.07251 92.718628 771.822937 88.874695 763.960022 88.328857 C 737.889832 86.61261 711.711243 87.634033 685.853088 91.374451 C 633.923462 98.944153 577.064453 120.491455 530.485596 144.502869 C 435.638855 193.39801 349.960968 272.762817 283.543762 355.657471 C 255.350739 391.279602 229.99028 429.056702 207.696411 468.641174 C 205.969025 471.644897 197.942245 485.310852 197.296677 487.906738 C 193.516754 494.658325 191.419785 499.368469 186.104736 504.880676 L 185.014389 504.583679 C 185.046432 500.589478 187.367615 495.767212 188.911346 491.936768 Z"/>
        <path id="path41" fill="#d50301" stroke="none" d="M 563.800232 276.955444 C 566.794067 275.166504 573.081177 266.406616 576.305481 262.901489 C 587.896606 250.276672 600.707458 238.274048 615.512939 229.462463 C 621.234619 226.057007 635.419189 221.287781 639.042603 230.177002 C 640.673828 234.177551 635.177673 242.605896 633.213745 246.739502 C 628.325073 256.987671 620.94751 265.530701 615.496887 277.424805 C 621.025085 294.456665 626.086426 305.787842 633.561279 322.121155 C 618.510559 323.50592 589.432983 324.172485 579.089905 336.087585 C 577.77655 337.600586 575.377747 341.901611 574.385925 343.755859 C 576.112061 361.896484 582.721985 382.806885 588.47937 400.082642 C 580.573364 401.266663 553.880981 409.679077 548.079285 413.319763 L 547.462036 413.566162 C 545.15686 414.481628 540.704224 416.443054 538.354675 416.379028 C 524.557007 416.006897 522.101501 405.878174 521.155273 394.681274 C 519.649719 376.848633 523.490051 361.444397 528.794006 344.721863 C 528.56488 344.091003 528.334473 343.460144 528.105347 342.829407 C 532.354614 329.158569 554.614075 287.717346 563.800232 276.955444 Z"/>
        <path id="path42" fill="#b90000" stroke="none" d="M 809.388062 93.622986 L 813.416809 94.145386 C 756.47406 119.378967 708.583069 160.72522 666.725464 206.311035 C 657.301575 216.575256 641.331787 239.456848 633.213745 246.739502 C 635.177673 242.605896 640.673828 234.177551 639.042603 230.177002 C 635.419189 221.287781 621.234619 226.057007 615.512939 229.462463 C 600.707458 238.274048 587.896606 250.276672 576.305481 262.901489 C 573.081177 266.406616 566.794067 275.166504 563.800232 276.955444 C 566.808899 269.964844 584.064941 245.331238 588.771362 238.898743 C 632.526306 179.106201 688.706482 126.933838 760.515137 104.000488 C 778.089172 98.387329 791.438354 96.385254 809.388062 93.622986 Z"/>
        <path id="path43" fill="#b90000" stroke="none" d="M 528.105347 342.829407 C 528.334473 343.460144 528.56488 344.091003 528.794006 344.721863 C 523.490051 361.444397 519.649719 376.848633 521.155273 394.681274 C 522.101501 405.878174 524.557007 416.006897 538.354675 416.379028 C 540.704224 416.443054 545.15686 414.481628 547.462036 413.566162 L 548.079285 413.319763 C 536.81958 422.253357 534.036377 438.974731 532.033081 452.641846 C 525.046143 500.301147 547.43988 555.338013 582.485474 588.149902 C 577.41803 586.596252 573.219177 577.33252 568.714844 577.216675 C 565.974792 575.647034 561.470398 568.262207 558.593567 564.86908 C 551.856689 565.134033 540.706665 554.643066 535.735413 550.390015 C 529.296692 543.262695 524.325317 538.134888 522.145874 528.855103 C 516.589294 521.630371 512.045532 513.679932 508.640198 505.224365 C 488.391479 454.184326 507.218414 390.4505 528.105347 342.829407 Z"/>
        <path id="path44" fill="#d50301" stroke="none" d="M 522.145874 528.855103 C 533.566956 540.497925 541.501404 543.095093 552.418518 553.650024 C 553.635803 554.82666 557.543884 562.765991 558.593567 564.86908 C 551.856689 565.134033 540.706665 554.643066 535.735413 550.390015 C 529.296692 543.262695 524.325317 538.134888 522.145874 528.855103 Z"/>
        <path id="path45" fill="#7d0100" stroke="none" d="M 199.159515 509.393677 C 207.319366 510.398987 209.30542 510.927551 217.275528 512.943176 C 218.431259 515.202759 219.070663 516.647949 220.618103 518.645081 C 219.074356 518.030334 217.508423 517.472229 215.923996 516.973206 C 207.442612 514.241821 189.324081 511.617493 181.368744 515.662354 C 178.83197 516.310425 176.525558 517.135864 174.51239 516.118164 L 175.06311 514.612549 L 176.013046 514.997009 C 183.943726 510.98053 190.33313 509.478638 199.159515 509.393677 Z"/>
    </g>
</svg>
