<?xml version="1.0" encoding="UTF-8"?>
<!-- Generated by Pixelmator Pro 3.7.1 -->
<svg width="1024" height="1024" viewBox="0 0 1024 1024" xmlns="http://www.w3.org/2000/svg">
    <path id="Shape" fill="#ffffff" fill-rule="evenodd" stroke="none" visibility="hidden" d="M 0 1024 L 1024 1024 L 1024 0 L 0 0 Z"/>
    <g id="Group">
        <path id="Path" fill="#f8192f" stroke="none" d="M 534.441345 234.121521 C 542.42511 214.67627 547.766724 197.646912 557.852295 178.579712 C 582.624084 131.747681 618.475647 88.141907 670.733826 71.743958 C 695.571289 63.95105 717.862915 63.341553 741.044312 75.459839 C 711.827515 81.650635 696.805481 80.08728 667.733765 97.391846 C 613.134033 129.890686 574.576111 197.24176 558.56311 257.442993 C 559.802307 260.066528 563.594055 267.83252 563.877747 270.229858 C 565.240173 281.750427 559.6604 291.253601 564.45343 302.936279 C 566.962097 309.105103 571.908691 313.962219 578.121399 316.359497 C 586.824402 319.71405 593.261658 318.127197 601.27417 314.774231 C 614.226379 334.695618 625.086914 363.238831 632.614746 385.895264 C 635.913696 399.645996 640.372314 412.417603 643.196716 426.784607 C 652.936218 476.331421 656.903687 531.741455 647.552429 581.541382 C 572.042114 529.718872 452.691284 528.922058 377.344666 581.509338 C 376.593384 579.157593 375.93161 576.77887 375.36264 574.376465 C 372.25293 560.742126 371.726166 537.312622 371.503357 523.379517 C 370.454926 457.958069 387.060547 371.536682 422.010712 315.174438 C 454.63446 326.887512 464.711609 302.708313 460.644623 274.654785 C 460.197205 270.783569 465.143768 259.254456 464.394196 256.392944 C 444.722717 181.328308 391.026245 99.096985 311.283447 80.49762 C 305.269897 79.094604 288.660919 79.109802 286.462799 74.205444 C 289.405396 69.596497 303.497253 67.425415 308.850677 66.59314 C 328.966187 64.97406 349.157623 68.576843 367.47345 77.05011 C 430.267914 105.454956 465.61142 172.076721 488.541229 233.545837 C 495.704498 225.050476 502.278503 217.510864 511.560547 211.375732 C 520.05072 216.837158 527.661377 226.434998 534.441345 234.121521 Z"/>
        <path id="path1" fill="#f8192f" stroke="none" d="M 824.805176 22.472351 C 831.551392 22.36261 838.442871 22.274841 845.173889 22.658142 C 920.425903 26.936096 986.036438 80.170044 1011.454651 150.075378 C 1030.64502 203.910278 1027.726074 263.154419 1003.337585 314.841797 C 983.1427 358.035645 948.165588 395.243042 902.729675 411.649475 C 894.881042 414.245972 886.785889 416.028809 878.57251 416.972473 C 819.03302 423.222412 741.371887 386.629517 735.057739 320.750671 C 738.829346 319.074158 742.587402 317.365723 746.3302 315.625122 C 811.646912 285.185974 848.867798 233.86322 852.387817 161.109802 C 854.744629 112.378479 845.612854 66.554321 824.805176 22.472351 Z"/>
        <path id="path2" fill="#f8192f" stroke="none" d="M 175.74231 22.769531 C 182.67424 22.230957 191.223587 22.46405 198.28891 22.472351 C 196.696899 25.61261 195.145386 28.772888 193.639465 31.955261 C 168.785034 84.870117 162.454086 164.825623 182.966309 219.656616 C 197.174652 257.635437 223.94017 286.702087 259.268494 306.140564 C 268.891479 311.434937 279.493744 316.045532 289.477997 320.651123 C 289.331146 323.710144 289.010376 326.757446 288.512329 329.77948 C 278.760986 389.614441 195.476257 425.641663 141.112946 416.457581 C 119.074501 413.200928 96.031601 402.276306 78.902626 388.328003 C -59.159069 275.904053 -9.261159 43.805176 175.74231 22.769531 Z"/>
        <path id="path3" fill="#f8192f" stroke="none" d="M 488.661133 563.022949 C 492.905334 562.442261 504.832825 562.533447 509.451935 562.489502 C 544.851135 562.150146 583.463013 568.143494 615.484131 583.422119 C 624.885925 587.909424 641.792175 597.394043 644.147217 607.84259 C 648.484375 627.085327 635.770142 660.001099 627.198853 676.257324 C 592.875061 657.338684 575.310486 650.482788 535.555664 646.425903 C 482.718445 641.729187 442.403046 650.131592 396.536682 676.253906 C 388.949707 661.827881 370.019318 613.26532 384.225952 599.36261 C 409.590271 574.538513 454.558472 566.576721 488.661133 563.022949 Z"/>
        <path id="path4" fill="#f8192f" stroke="none" d="M 569.673462 853.891479 C 581.855896 871.570923 600.671448 930.007935 606.760986 951.279968 C 597.256104 962.73645 581.761292 973.190002 569.163635 981.023499 C 554.062195 989.59137 522.103638 1006.502563 505.568909 1003.126038 C 479.058319 997.711853 433.024811 973.205261 417.373077 951.100952 C 426.368073 921.85199 438.714203 881.080811 453.530304 854.298401 C 456.64682 855.419434 462.383514 859.353088 465.327789 861.188171 C 502.930206 884.632935 535.244995 876.083618 569.673462 853.891479 Z"/>
        <path id="path5" fill="#f8192f" stroke="none" d="M 497.50415 663.602173 C 536.065491 661.063049 582.607178 668.427246 615.641174 689.2146 C 618.809937 691.208374 622.355347 693.842041 622.674377 697.694702 C 624.15155 715.571533 611.97937 746.522217 602.261719 760.365845 C 568.728027 744.422058 563.727478 740.230164 524.578613 737.074829 C 522.424438 736.475403 510.576263 736.372437 507.851471 736.434937 C 472.64975 737.250366 451.067169 744.46936 420.744507 759.974121 C 408.271729 738.337585 402.8237 720.632935 400.97171 695.994629 C 419.775452 674.368164 469.757751 665.054016 497.50415 663.602173 Z"/>
        <path id="path6" fill="#f8192f" stroke="none" d="M 790.764954 73.774902 C 792.356934 75.728149 796.047546 93.107117 796.971008 97.187622 C 804.159546 128.951965 816.215332 158.700623 829.672363 188.293945 C 817.584473 236.299316 794.90625 269.90564 752.777649 295.875977 C 746.851929 299.183228 742.893005 301.18042 736.686951 303.908691 C 717.665405 265.933289 716.750366 208.74707 727.398193 168.342224 C 736.605896 133.40387 760.069153 93.880371 790.764954 73.774902 Z"/>
        <path id="path7" fill="#f8192f" stroke="none" d="M 230.42305 73.904968 C 253.879562 84.677612 281.333923 127.437622 290.188782 151.344971 C 308.906403 201.879333 307.999786 254.520691 286.849426 303.65033 C 282.250641 301.712341 277.452606 299.078552 272.985504 296.772461 C 227.618851 270.066101 207.675568 237.579041 194.478485 187.622131 C 210.685699 151.429321 224.929489 113.264771 230.42305 73.904968 Z"/>
        <path id="path8" fill="#f8192f" stroke="none" d="M 730.960388 371.634583 C 734.509155 372.341858 740.743835 380.069031 743.645935 383.111267 C 773.239258 414.132813 817.486572 431.11322 860.623108 433.809448 C 840.40625 457.109009 799.736328 478.93634 771.502075 490.25946 C 740.127686 501.484619 707.216858 507.823914 673.917847 509.056396 C 673.659546 476.457947 667.649353 435.144836 658.2323 404.006714 C 663.384827 402.235718 673.700012 400.235168 679.651123 398.570496 C 700.445313 392.75116 714.113342 384.527649 730.960388 371.634583 Z"/>
        <path id="path9" fill="#f8192f" stroke="none" d="M 291.034607 371.739258 C 296.595673 375.139343 303.149475 381.022888 309.495605 384.929504 C 327.829987 396.212097 344.464294 399.706787 364.914093 404.168823 C 354.465515 441.075562 350.80368 470.609863 349.304504 509.301086 C 316.668976 506.934204 289.461151 502.848694 258.301117 491.871643 C 220.783157 478.944763 192.626511 461.520264 163.679779 434.639954 C 173.240326 432.246094 185.770523 431.084595 195.981064 428.580872 C 240.620087 417.63092 261.091766 404.153564 291.034607 371.739258 Z"/>
        <path id="path10" fill="#f8192f" stroke="none" d="M 497.532837 753.774902 C 522.292725 749.920715 560.03186 758.01416 582.961609 769.232544 C 602.803711 778.939941 592.16095 796.320557 583.277344 811.570496 C 570.372375 833.723694 551.116211 850.881409 525.415955 857.244385 C 480.766815 866.867432 440.613495 824.894165 429.653412 785.527588 C 423.624664 763.872375 484.112976 755.350098 497.532837 753.774902 Z"/>
        <path id="path11" fill="#f8192f" stroke="none" d="M 600.426636 817.275146 C 603.065369 817.810181 604.839722 818.40625 607.223511 819.685913 C 637.659302 836.028137 686.576294 868.592773 698.11554 901.474854 C 692.370422 918.078796 682.163208 925.307861 667.938049 934.215088 C 652.443237 942.728943 639.75946 947.614746 622.235413 949.666016 C 613.981567 911.523315 601.282593 878.702087 584.101257 843.714844 C 589.398987 835.86438 595.262268 825.557678 600.426636 817.275146 Z"/>
        <path id="path12" fill="#f8192f" stroke="none" d="M 422.257172 816.643677 C 425.155914 818.02124 436.81662 839.885864 439.148132 844.003418 C 432.950531 859.297363 425.826111 872.61084 419.618469 889.214844 C 411.606018 910.643738 408.004944 928.974731 401.265503 949.657532 C 384.583893 948.41333 374.025574 944.422241 359.293884 936.78125 C 343.665771 927.00116 333.338745 919.226807 327.210388 901.537354 C 327.701691 899.871094 328.225037 898.214844 328.780487 896.568787 C 338.756348 867.848328 394.917664 829.668579 422.257172 816.643677 Z"/>
        <path id="path13" fill="#292728" stroke="none" d="M 426.942078 252.216248 C 459.440857 250.198669 465.434204 295.389832 434.375458 304.339172 C 422.154175 304.913269 412.568298 300.071289 408.38147 287.985229 C 405.815277 280.408264 406.499023 272.108826 410.267242 265.051941 C 414.273438 257.574646 419.289246 254.711426 426.942078 252.216248 Z"/>
        <path id="path14" fill="#292728" stroke="none" d="M 588.890808 252.206055 C 621.134705 250.039978 627.977112 295.303711 596.744507 304.396606 C 591.59198 304.462463 588.80304 304.568848 583.939209 302.382507 C 577.885132 299.661072 573.200195 294.592896 570.959961 288.344727 C 565.425842 272.94281 573.779297 257.652344 588.890808 252.206055 Z"/>
    </g>
</svg>
